<?xml version="1.0" encoding="utf-8"?>
<!-- Generator: Adobe Illustrator 27.9.1, SVG Export Plug-In . SVG Version: 6.00 Build 0)  -->
<svg version="1.1" id="Layer_1" xmlns="http://www.w3.org/2000/svg" xmlns:xlink="http://www.w3.org/1999/xlink" x="0px" y="0px"
	 viewBox="0 0 1080 1080" style="enable-background:new 0 0 1080 1080;" xml:space="preserve">
<style type="text/css">
	.st0{display:none;}
	.st1{display:inline;fill:url(#SVGID_1_);}
	.st2{fill:#FFFFFF;}
	.st3{fill:none;}
</style>
<g id="Layer_2_00000003793873764808241850000001924617452435796641_" class="st0">
	<linearGradient id="SVGID_1_" gradientUnits="userSpaceOnUse" x1="1075.3523" y1="1130.6404" x2="-15.9521" y2="-39.6403">
		<stop  offset="0" style="stop-color:#76D7F7;stop-opacity:0.68"/>
		<stop  offset="1" style="stop-color:#CEFCFF;stop-opacity:0.93"/>
	</linearGradient>
	<rect x="-45.7" y="-11.9" class="st1" width="1150.8" height="1114.8"/>
</g>
<g id="Layer_3">
	
		<g id="ViewLayer_LineSet_00000154420456574962094580000008307438831990963623_" xmlns:inkscape="http://www.inkscape.org/namespaces/inkscape">
		
			<g id="strokes_00000064316337929460170480000005374251738644576179_" xmlns:inkscape="http://www.inkscape.org/namespaces/inkscape" inkscape:groupmode="layer" inkscape:label="strokes">
			<g>
				<path class="st2" d="M540,1020.6c-1.5,0-3-0.2-4.4-0.7l-8.1-2.5l-9.7-3l-9.5-3c0,0-9.6-2.9-9.7-2.9l-19-6l-9.6-3l-9.5-3
					c0,0-9.6-2.9-9.7-2.9l-9.5-3l-9.6-3l-9.5-3c0,0-9.6-2.9-9.7-2.9l-9.5-3l-9.6-3l-9.5-3c0,0-9.6-2.9-9.7-2.9l-9.5-3l-9.6-3
					c-1.4-0.4-2.7-1.1-3.9-1.9l-3.9-2.6l-8.2-5.3l-16.8-11l-8.4-5.5l-8.3-5.5l-8.4-5.5l-8.3-5.5l-8.4-5.5l-8.3-5.5l-8.4-5.5
					l-16.7-11l-8.4-5.5l-8.3-5.5l-8.3-5.4c-1.6-1-2.9-2.3-4-3.8l-5.4-7.5L201,849.5l-5.8-8.1l-5.9-8.1l-5.8-8.1l-11.7-16.3l-5.8-8.1
					l-5.9-8.1l-5.8-8.1l-3.8-5.3l-4.9,5.4l-6.7,7.4l-13.2,15l-6.7,7.5c-2.9,3.3-7,5-11.2,5c-1.9,0-3.8-0.4-5.6-1.1
					c-5.9-2.4-9.6-8.1-9.4-14.4l0.4-11.2l0.2-10l0.9-29.8c0,0,0.2-10,0.2-10.1l0.6-19.9c0,0,0.2-10,0.2-10.1l0.9-29.9
					c0,0,0.2-10,0.2-10.1l0.9-29.9c0,0,0.2-10,0.2-10.1l0.6-19.9l0.2-9.9c0.1-5.7,3.4-10.8,8.6-13.3c2-1,4.2-1.4,6.4-1.4
					c3.3,0,6.6,1.1,9.3,3.2l8.9,7l15.7,12.4l7.9,6.3l15.6,12.4l7.8,6.1l15.7,12.5l7.9,6.3l15.6,12.4l7.8,6.1l15.7,12.5l7.9,6.3
					l15.6,12.4l7.8,6.1l7.9,6.3c4.9,3.9,6.9,10.5,4.9,16.5s-7.6,10.1-13.9,10.2l-9,0.2l-23.5,0.7l23.8,26.7l6.6,7.4l5.3,5.9l0.5,0.3
					l8.5,5.1l17.1,10.4l8.6,5.3l17,10.4l8.5,5.2l17.1,10.4l8.6,5.3l7,4.3c0,0,7.6,2.5,7.7,2.5l9.3,3.3l28.4,9.6l9.4,3.2l13.2,4.5
					l1.7-0.8l6.1-2.9l4.5-5.1l3.1-3.6c0,0,0.1-3,0.1-3.1l1.5-29.9c0,0,0.4-10,0.4-10.1l1-20l0.5-9.8c0,0,0.4-10,0.4-10.1l1.5-29.9
					c0,0,0.4-10,0.4-10.1l1-20l0.5-9.8c0,0,0.4-10,0.4-10.1l1-19.9c0,0,0.4-10,0.4-10.1l2-29.9c0,0,0.4-10,0.4-10.1l1.5-29.8
					c0,0,0.4-10,0.4-10.1l1.5-29.9c0,0,0.4-10,0.4-10.1l1-20l0.5-9.8c0,0,0.4-10,0.4-10.1l1-19.9c0,0,0.4-10,0.4-10.1l1.3-26.5
					l-1.2-2.6l-5.6-13l-0.7-0.3l-9.2-4l-6.3-2.8H326.5c-0.8,0-1.5-0.1-2.3-0.2c-0.4,0-0.9-0.1-1.3-0.2c-0.6-0.1-1.1-0.2-1.7-0.3
					c-0.1,0-0.3-0.1-0.4-0.1c-0.5-0.1-1.1-0.3-1.6-0.5c-0.2-0.1-0.4-0.1-0.6-0.2c-0.4-0.1-0.8-0.3-1.2-0.4c-0.6-0.2-1.3-0.5-1.9-0.8
					l-0.4-0.2c-0.4-0.2-0.7-0.4-1.1-0.6c-0.5-0.3-1-0.6-1.5-0.9l-0.3-0.2c-0.2-0.2-0.5-0.3-0.7-0.5c-0.4-0.3-0.9-0.6-1.3-0.9
					c-0.2-0.1-0.3-0.3-0.5-0.4c-0.7-0.5-1.3-1.1-1.8-1.7c-0.6-0.6-1.2-1.2-1.7-1.8c-0.1-0.2-0.3-0.3-0.4-0.5
					c-0.3-0.4-0.6-0.8-0.9-1.3c-0.2-0.2-0.4-0.5-0.5-0.7l-0.2-0.3c-0.3-0.5-0.6-1-0.9-1.5c-0.2-0.3-0.4-0.7-0.6-1l-0.2-0.4
					c-0.3-0.6-0.6-1.2-0.8-1.8c-0.2-0.4-0.3-0.8-0.4-1.2c-0.1-0.2-0.1-0.4-0.2-0.6c-0.2-0.5-0.3-1.1-0.5-1.6c0-0.1-0.1-0.3-0.1-0.4
					c-0.1-0.5-0.3-1.1-0.3-1.7c-0.1-0.4-0.1-0.9-0.2-1.3c-0.1-0.7-0.2-1.5-0.2-2.3v-67c0-0.8,0.1-1.5,0.2-2.3c0-0.4,0.1-0.9,0.2-1.3
					c0.1-0.6,0.2-1.1,0.3-1.7c0-0.1,0.1-0.3,0.1-0.4c0.1-0.5,0.3-1.1,0.5-1.6c0.1-0.2,0.1-0.4,0.2-0.6c0.1-0.4,0.3-0.8,0.4-1.2
					c0.2-0.6,0.5-1.2,0.8-1.8l0.2-0.4c0.2-0.4,0.4-0.7,0.6-1c0.3-0.5,0.6-1,0.9-1.5l0.2-0.3c0.2-0.2,0.3-0.5,0.5-0.7
					c0.3-0.4,0.6-0.9,0.9-1.3c0.1-0.2,0.3-0.3,0.4-0.5c0.5-0.7,1.1-1.3,1.7-1.8c0.6-0.6,1.2-1.2,1.8-1.7c0.2-0.1,0.3-0.3,0.5-0.4
					c0.4-0.3,0.8-0.6,1.3-0.9c0.2-0.2,0.5-0.4,0.7-0.5l0.3-0.2c0.5-0.3,1-0.6,1.5-0.9c0.3-0.2,0.7-0.4,1.1-0.6l0.4-0.2
					c0.6-0.3,1.2-0.6,1.9-0.8c0.4-0.2,0.8-0.3,1.2-0.4c0.2-0.1,0.4-0.1,0.6-0.2c0.5-0.2,1.1-0.3,1.6-0.5c0.1,0,0.3-0.1,0.4-0.1
					c0.5-0.1,1.1-0.3,1.7-0.3c0.4-0.1,0.9-0.1,1.3-0.2c0.7-0.1,1.5-0.2,2.3-0.2h129.6l2.8-1.2l9.1-4l3.7-1.6l0.1-0.2l3.9-9.2
					l2.9-6.5l0.1-1.7l1-19.2l-0.3-3.2l-5.6-5.1c-0.3-0.3-0.6-0.6-0.9-0.9c-0.1-0.1-2.1-1.8-2.1-1.8c-0.1-0.1-0.2-0.2-0.3-0.3
					l-1.9-1.7c-0.1-0.1-0.2-0.2-0.3-0.3l-1.8-1.7c-0.1-0.1-0.2-0.2-0.3-0.3l-1.8-1.8c-0.1-0.1-0.2-0.2-0.3-0.3l-1.7-1.8
					c-0.2-0.2-0.4-0.4-0.6-0.6l-3.2-3.8c-0.1-0.1-0.2-0.2-0.2-0.3l-1.6-2c-0.1-0.1-0.2-0.2-0.3-0.4l-1.5-2c-0.1-0.1-0.2-0.3-0.3-0.4
					l-1.4-2c-0.1-0.1-0.1-0.2-0.2-0.3l-1.4-2.1c-0.2-0.2-0.3-0.5-0.4-0.7l-1.2-2.1l-1.2-2c-0.1-0.2-0.3-0.5-0.4-0.7l-1.2-2.2
					c-0.1-0.2-0.2-0.5-0.4-0.7l-1-2.2l-1-2.1c-0.1-0.2-0.2-0.5-0.3-0.7l-1-2.3c-0.1-0.2-0.1-0.3-0.2-0.5l-1.8-4.6
					c-0.1-0.2-0.2-0.5-0.3-0.7l-1.6-4.8c-0.1-0.2-0.1-0.4-0.2-0.5l-0.7-2.4c-0.1-0.2-0.1-0.4-0.2-0.6L438,191
					c-0.1-0.2-0.1-0.5-0.2-0.7l-0.5-2.4c0,0-0.5-2.4-0.5-2.5l-0.5-2.5c-0.1-0.4-0.1-0.8-0.2-1.2l-0.6-5c0-0.2,0-0.4-0.1-0.5
					l-0.2-2.4c0-0.2,0-0.4,0-0.7l-0.1-2.6l-0.1-2.4c0-0.2,0-0.4,0-0.6v-2.6c0-0.2,0-0.4,0-0.6l0.1-2.4l0.1-2.6c0-0.2,0-0.4,0-0.7
					l0.2-2.4c0-0.2,0-0.4,0.1-0.5l0.6-5c0-0.4,0.1-0.8,0.2-1.2l0.5-2.6l0.5-2.3l0.5-2.4c0-0.2,0.1-0.5,0.2-0.7l0.6-2.4
					c0-0.2,0.1-0.4,0.2-0.6l0.7-2.4c0.1-0.2,0.1-0.4,0.2-0.5l1.6-4.8c0.1-0.2,0.2-0.5,0.3-0.7l1.8-4.6c0.1-0.2,0.1-0.3,0.2-0.5
					l1-2.3c0.1-0.2,0.2-0.5,0.3-0.7l1-2.1l1-2.2c0.1-0.2,0.2-0.5,0.4-0.7l1.2-2.2c0.1-0.2,0.3-0.5,0.4-0.7l1.2-2l1.2-2.1
					c0.1-0.2,0.3-0.5,0.4-0.7l1.4-2.1c0.1-0.1,0.1-0.2,0.2-0.3l1.4-2c0.1-0.1,0.2-0.3,0.3-0.4l1.5-2c0.1-0.1,0.2-0.2,0.3-0.4l1.6-2
					c0.1-0.1,0.2-0.2,0.2-0.3l3.2-3.8c0.2-0.2,0.4-0.4,0.6-0.6l1.7-1.8c0.1-0.1,0.2-0.2,0.3-0.3l1.8-1.8c0.1-0.1,0.2-0.2,0.3-0.3
					l1.8-1.7c0.1-0.1,0.2-0.2,0.3-0.3l1.9-1.7c0.1-0.1,0.2-0.2,0.3-0.3l3.8-3.2c0.2-0.2,0.4-0.4,0.7-0.5l4-3
					c0.2-0.2,0.4-0.3,0.7-0.5l2.1-1.4c0.1-0.1,0.3-0.2,0.4-0.3c0,0,4.4-2.7,4.5-2.8l2.2-1.3c0.3-0.2,0.6-0.3,0.9-0.5l2.4-1.2l2.2-1
					l2.1-1c0.2-0.1,0.5-0.2,0.7-0.3l2.3-1c0.2-0.1,0.5-0.2,0.7-0.3l2.4-0.9c0.1,0,0.2-0.1,0.3-0.1c0,0,2.4-0.8,2.5-0.9l2.4-0.8
					c0.2-0.1,0.4-0.1,0.5-0.2l4.8-1.4c0.2-0.1,0.5-0.1,0.7-0.2l2.5-0.6c0.1,0,0.3-0.1,0.4-0.1l2.4-0.5c0.2,0,0.5-0.1,0.7-0.1
					l2.5-0.4l2.3-0.4c0.2,0,0.5-0.1,0.7-0.1l5-0.6c0.2,0,0.4,0,0.6-0.1l2.5-0.2c0.2,0,0.4,0,0.6,0l2.5-0.1c0.2,0,0.4,0,0.6,0h5
					c0.2,0,0.4,0,0.6,0l2.5,0.1c0.2,0,0.4,0,0.6,0l2.5,0.2c0.2,0,0.4,0,0.6,0.1l5,0.6c0.2,0,0.5,0.1,0.7,0.1l2.4,0.4l2.4,0.4
					c0.2,0,0.5,0.1,0.7,0.1l2.4,0.5c0.1,0,0.3,0.1,0.4,0.1l2.5,0.6c0.2,0.1,0.5,0.1,0.7,0.2l4.8,1.4c0.2,0.1,0.4,0.1,0.5,0.2
					c0,0,2.5,0.8,2.6,0.9l2.3,0.8c0.1,0,0.2,0.1,0.3,0.1l2.4,0.9c0.2,0.1,0.5,0.2,0.7,0.3l2.3,1c0.2,0.1,0.5,0.2,0.7,0.3l2.1,1
					c0,0,2.3,1.1,2.4,1.2l2.2,1.1c0.3,0.2,0.6,0.3,0.9,0.5c0,0,2.4,1.4,2.5,1.5l4.2,2.6c0.1,0.1,0.3,0.2,0.4,0.3l2.1,1.4
					c0.2,0.2,0.5,0.3,0.7,0.5l4,3c0.2,0.2,0.4,0.3,0.7,0.5l3.8,3.2c0.1,0.1,0.2,0.2,0.3,0.3l1.9,1.7c0.1,0.1,0.2,0.2,0.3,0.3
					l1.8,1.7c0.1,0.1,0.2,0.2,0.3,0.3l1.8,1.8c0.1,0.1,0.2,0.2,0.3,0.3l1.7,1.8c0.2,0.2,0.4,0.4,0.6,0.6l3.2,3.8
					c0.1,0.1,0.2,0.2,0.2,0.3l1.6,2c0.1,0.1,0.2,0.2,0.3,0.4l1.5,2c0.1,0.1,0.2,0.3,0.3,0.4l1.4,2c0.1,0.1,0.1,0.2,0.2,0.3l1.4,2.1
					c0.2,0.2,0.3,0.5,0.4,0.7l1.2,2.1l1.2,2c0.1,0.2,0.3,0.5,0.4,0.7l1.2,2.2c0.1,0.2,0.2,0.5,0.4,0.7l1,2.2l1,2.1
					c0.1,0.2,0.2,0.5,0.3,0.7l1,2.3c0.1,0.2,0.1,0.3,0.2,0.5l1.8,4.6c0.1,0.2,0.2,0.5,0.3,0.7l1.6,4.8c0.1,0.2,0.1,0.4,0.2,0.5
					l0.7,2.4c0.1,0.2,0.1,0.4,0.2,0.6l0.6,2.4c0.1,0.2,0.1,0.5,0.2,0.7l0.5,2.4c0,0,0.5,2.4,0.5,2.5l0.5,2.5
					c0.1,0.4,0.1,0.8,0.2,1.2l0.6,5c0,0.2,0,0.4,0.1,0.5l0.2,2.4c0,0.2,0,0.4,0,0.7l0.1,2.6l0.1,2.4c0,0.2,0,0.4,0,0.6v2.6
					c0,0.2,0,0.4,0,0.6l-0.1,2.4l-0.1,2.6c0,0.2,0,0.4,0,0.7l-0.2,2.4c0,0.2,0,0.4-0.1,0.5l-0.6,5c0,0.4-0.1,0.8-0.2,1.2l-0.5,2.6
					l-0.5,2.3l-0.5,2.4c0,0.2-0.1,0.5-0.2,0.7l-0.6,2.4c0,0.2-0.1,0.4-0.2,0.6l-0.7,2.4c-0.1,0.2-0.1,0.4-0.2,0.5l-1.6,4.8
					c-0.1,0.2-0.2,0.5-0.3,0.7l-1.8,4.6c-0.1,0.2-0.1,0.3-0.2,0.5l-1,2.3c-0.1,0.2-0.2,0.5-0.3,0.7l-1,2.1l-1,2.2
					c-0.1,0.2-0.2,0.5-0.4,0.7l-1.2,2.2c-0.1,0.2-0.3,0.5-0.4,0.7l-1.2,2l-1.2,2.1c-0.1,0.2-0.3,0.5-0.4,0.7l-1.4,2.1
					c-0.1,0.1-0.1,0.2-0.2,0.3l-1.4,2c-0.1,0.1-0.2,0.3-0.3,0.4l-1.5,2c-0.1,0.1-0.2,0.2-0.3,0.4l-1.6,2c-0.1,0.1-0.2,0.2-0.2,0.3
					l-3.2,3.8c-0.2,0.2-0.4,0.4-0.6,0.6l-1.7,1.8c-0.1,0.1-0.2,0.2-0.3,0.3l-1.8,1.8c-0.1,0.1-0.2,0.2-0.3,0.3l-1.8,1.7
					c-0.1,0.1-0.2,0.2-0.3,0.3l-1.9,1.7c-0.1,0.1-0.2,0.2-0.3,0.3c0,0-2,1.7-2.1,1.8c-0.3,0.3-0.5,0.5-0.8,0.8l-2.7,2.5l-3,2.7
					l-0.3,3.2l0.2,3.6l0.9,17.2l1.3,3.1l4,9.1l1.6,3.6l9.4,4.1l6.3,2.7h129.6c0.8,0,1.5,0.1,2.3,0.2c0.4,0,0.9,0.1,1.3,0.2
					c0.6,0.1,1.1,0.2,1.7,0.3c0.1,0,0.3,0.1,0.4,0.1c0.5,0.1,1.1,0.3,1.6,0.5c0.2,0.1,0.4,0.1,0.6,0.2c0.4,0.1,0.8,0.3,1.2,0.4
					c0.6,0.2,1.2,0.5,1.8,0.8l0.4,0.2c0.3,0.2,0.7,0.4,1,0.6c0.5,0.3,1,0.6,1.5,0.9l0.3,0.2c0.3,0.2,0.5,0.3,0.7,0.5
					c0.4,0.3,0.9,0.6,1.3,0.9c0.2,0.1,0.3,0.3,0.5,0.4c0.7,0.5,1.3,1.1,1.8,1.7c0.6,0.6,1.2,1.2,1.7,1.8c0.1,0.2,0.3,0.3,0.4,0.5
					c0.3,0.4,0.7,0.8,0.9,1.3c0.2,0.2,0.4,0.5,0.5,0.7l0.2,0.3c0.3,0.5,0.6,1,0.9,1.5c0.2,0.3,0.4,0.7,0.6,1l0.2,0.3
					c0.3,0.6,0.6,1.2,0.8,1.9c0.2,0.4,0.3,0.8,0.4,1.2c0.1,0.2,0.1,0.4,0.2,0.6c0.2,0.5,0.3,1,0.5,1.6c0,0.1,0.1,0.3,0.1,0.4
					c0.1,0.5,0.3,1.1,0.3,1.7c0.1,0.4,0.1,0.9,0.2,1.3c0.1,0.7,0.2,1.5,0.2,2.3v67c0,0.8-0.1,1.5-0.2,2.3c0,0.4-0.1,0.9-0.2,1.3
					c-0.1,0.6-0.2,1.1-0.3,1.7c0,0.1-0.1,0.3-0.1,0.4c-0.1,0.5-0.3,1.1-0.5,1.6c-0.1,0.2-0.1,0.4-0.2,0.6c-0.1,0.4-0.3,0.8-0.4,1.2
					c-0.2,0.6-0.5,1.3-0.8,1.9l-0.2,0.3c-0.2,0.4-0.4,0.7-0.6,1c-0.3,0.5-0.6,1-0.9,1.5l-0.2,0.3c-0.2,0.3-0.3,0.5-0.5,0.7
					c-0.3,0.4-0.6,0.9-0.9,1.3c-0.1,0.2-0.3,0.3-0.4,0.5c-0.5,0.7-1.1,1.3-1.7,1.8c-0.6,0.6-1.2,1.2-1.8,1.7
					c-0.2,0.1-0.3,0.3-0.5,0.4c-0.4,0.3-0.8,0.6-1.3,0.9c-0.2,0.2-0.5,0.4-0.7,0.5l-0.3,0.2c-0.5,0.3-1,0.6-1.5,0.9
					c-0.3,0.2-0.7,0.4-1,0.6l-0.4,0.2c-0.6,0.3-1.2,0.6-1.8,0.8c-0.4,0.2-0.8,0.3-1.2,0.4c-0.2,0.1-0.4,0.1-0.6,0.2
					c-0.5,0.2-1.1,0.3-1.6,0.5c-0.1,0-0.3,0.1-0.4,0.1c-0.5,0.1-1.1,0.3-1.7,0.3c-0.4,0.1-0.9,0.1-1.3,0.2c-0.7,0.1-1.5,0.2-2.3,0.2
					H632.2c0,0-3.3,1.5-3.4,1.5l-9.1,3.9L616,427l-4.3,9.8l-2.6,5.9l0.2,4.8l1,20.1l0.4,9.9c0,0,1.5,29.9,1.5,30l0.4,9.9
					c0,0,1.5,30,1.5,30.1l0.4,9.9c0,0,1,19.9,1,20l0.4,9.9c0,0,2,40,2,40.1l0.4,9.9c0,0,1,20,1,20.1l0.4,9.8c0,0,1.5,30,1.5,30.1
					l0.4,9.9c0,0,1.5,30,1.5,30.1l0.4,9.8c0,0,1,20,1,20.1l0.4,9.9c0,0,2,40,2,40.1l0.4,9.9c0,0,1,19.9,1,20l0.2,4.8l3.1,3.6
					l4.5,5.1l4.4,2.1l3.5,1.7l3.3-1.1l19-6.4l9.4-3.2l19-6.4l9.4-3.2l8-2.7l1-0.6l8.4-5.1c0,0,8.5-5.3,8.6-5.3l8.5-5.2l8.7-5.2
					l8.4-5.2l8.7-5.2l8.4-5.1c0,0,8.5-5.3,8.6-5.3l8.5-5.2l8.7-5.2l6.5-4l8.4-9.4l13.4-15l6.6-7.4l7.3-8.1l-12.6-0.4
					c0,0-10-0.2-10.1-0.2l-10-0.3c-6.3-0.2-11.8-4.3-13.8-10.3s0-12.6,4.9-16.5l8.8-7l8-6.3l15.5-12.3l7.9-6.2l7.8-6.3l7.8-6.2
					l8-6.3l15.5-12.3l7.9-6.2l7.8-6.3l7.8-6.2l8-6.3l15.5-12.3l7.9-6.2l7.8-6.3l7.8-6.2l8-6.3c2.7-2.1,6-3.2,9.3-3.2
					c2.2,0,4.3,0.5,6.4,1.4c5.1,2.4,8.5,7.5,8.6,13.2l0.3,11.3l0.2,10c0,0,0.6,19.9,0.6,20l0.2,9.9c0,0,1.2,40,1.2,40.1l0.2,9.9
					c0,0,0.6,20,0.6,20.1l0.2,9.9c0,0,0.9,30,0.9,30.1l0.2,9.9l0.9,29.9c0.2,6.3-3.6,12.1-9.5,14.4c-1.8,0.7-3.7,1.1-5.5,1.1
					c-4.2,0-8.3-1.8-11.3-5.1l-6-6.8l-6.7-7.5l-13.1-14.9l-5.6-6.2l-3.4,4.6l-5.7,8.1c0,0-5.9,8.2-5.9,8.3l-5.9,8.1l-11.6,16.2
					l-5.8,8c0,0-5.8,8.2-5.9,8.3l-5.9,8.1L867.4,865l-5.9,8.2c-1.1,1.5-2.4,2.8-4,3.8l-4,2.6l-8.4,5.5l-8.2,5.5l-8.5,5.5l-8.2,5.5
					l-8.5,5.5l-8.2,5.5l-8.5,5.5l-8.3,5.4l-16.8,11l-8.2,5.5l-8.5,5.5L745,951l-8.5,5.5l-8.2,5.5c-1.2,0.8-2.5,1.4-3.9,1.8l-8.1,2.5
					l-18.9,6l-9.6,3l-9.6,3l-9.5,2.9l-9.4,3l-9.7,3l-9.4,2.9l-9.6,3l-9.5,3l-9.6,3l-9.6,3l-9.5,2.9l-9.4,3l-9.6,3l-9.6,3l-9.5,2.9
					l-9.4,3C543,1020.4,541.5,1020.6,540,1020.6z"/>
				<path class="st2" d="M542.5,76.5l2.5,0.1l2.5,0.2l2.5,0.3l2.5,0.3l2.4,0.4l2.5,0.4l2.4,0.5l2.5,0.6l2.4,0.7l2.4,0.7l2.4,0.8
					l2.3,0.8l2.4,0.9l2.3,1l2.2,1.1l2.3,1.1l2.2,1.1l2.2,1.3l2.1,1.3l2.1,1.3l2.1,1.4l2,1.5l2,1.5l1.9,1.6l1.9,1.6l1.9,1.7l1.8,1.7
					l1.8,1.8l1.7,1.8l1.6,1.9l1.6,1.9l1.6,2l1.5,2l1.4,2l1.4,2.1l1.3,2.2l1.3,2.1l1.2,2.2l1.1,2.3l1.1,2.2l1,2.3l0.9,2.3l0.9,2.3
					l0.8,2.4l0.8,2.4l0.7,2.4l0.6,2.4l0.5,2.5l0.5,2.4l0.5,2.5l0.3,2.5l0.3,2.5l0.2,2.4l0.1,2.6l0.1,2.4v2.6l-0.1,2.4l-0.1,2.6
					l-0.2,2.4l-0.3,2.5l-0.3,2.5l-0.5,2.5l-0.5,2.4l-0.5,2.5l-0.6,2.4l-0.7,2.4l-0.8,2.4l-0.8,2.4l-0.9,2.3l-0.9,2.3l-1,2.3
					l-1.1,2.2l-1.1,2.3l-1.2,2.2l-1.3,2.1l-1.3,2.2l-1.4,2.1l-1.4,2l-1.5,2l-1.6,2l-1.6,1.9l-1.6,1.9l-1.7,1.8l-1.8,1.8l-1.8,1.7
					l-1.9,1.7l-1.9,1.6l-1.6,1.3l0.1,0.1l-2.6,2.4l-7.4,6.7v0.1l-0.8,10l0.2,4.5l0.5,10l0.5,10l2.4,5.6l4,9.2l4,9.1l5.6,2.4l9.1,4
					l9.2,4h131.9h0.2h0.2h0.2h0.2l0.2,0.1h0.2h0.2h0.2l0.2,0.1h0.2h0.2l0.2,0.1h0.2l0.2,0.1h0.2l0.2,0.1l0.4,0.1l0.2,0.1l0.2,0.1
					h0.2l0.2,0.1l0.2,0.1l0.4,0.1l0.2,0.1l0.2,0.1l0.1,0.1l0.2,0.1l0.2,0.1l0.2,0.1l0.2,0.1l0.3,0.2l0.2,0.2l0.2,0.1l0.1,0.1
					l0.2,0.1l0.2,0.2l0.1,0.1l0.2,0.1l0.1,0.1l0.2,0.2l0.2,0.1l0.1,0.2l0.1,0.1l0.2,0.2l0.1,0.1l0.2,0.1l0.1,0.2l0.2,0.2l0.1,0.1
					l0.1,0.2l0.1,0.1l0.2,0.2l0.1,0.2l0.1,0.1l0.1,0.2l0.2,0.2l0.2,0.3l0.1,0.2l0.1,0.2l0.1,0.2l0.1,0.2l0.1,0.1l0.1,0.2l0.1,0.2
					v0.2l0.1,0.2l0.1,0.2l0.1,0.2v0.2l0.1,0.2l0.1,0.2l0.1,0.4l0.1,0.2v0.2l0.1,0.2v0.2l0.1,0.2v0.2v0.2l0.1,0.2v0.2v0.2v0.2
					l0.1,0.2v0.2v0.2v0.2v0.2v65.4v0.2v0.2v0.2v0.2l-0.1,0.2v0.2v0.2v0.2l-0.1,0.2v0.2v0.2l-0.1,0.2v0.2l-0.1,0.2v0.2l-0.1,0.2
					l-0.1,0.4l-0.1,0.2l-0.1,0.2v0.2l-0.1,0.2l-0.1,0.2l-0.1,0.2v0.2l-0.1,0.2l-0.1,0.2l-0.1,0.1l-0.1,0.2l-0.1,0.2l-0.1,0.2
					l-0.1,0.2l-0.2,0.3l-0.2,0.2l-0.1,0.2l-0.1,0.1l-0.1,0.2l-0.2,0.2l-0.1,0.1l-0.1,0.2l-0.1,0.1l-0.2,0.2l-0.1,0.2l-0.2,0.1
					l-0.1,0.1l-0.2,0.2l-0.1,0.1l-0.1,0.2l-0.2,0.1l-0.2,0.2l-0.1,0.1l-0.2,0.1l-0.1,0.1l-0.2,0.2l-0.2,0.1l-0.1,0.1l-0.2,0.1
					l-0.2,0.2l-0.3,0.2l-0.2,0.1l-0.2,0.1l-0.2,0.1l-0.2,0.1l-0.1,0.1l-0.2,0.1l-0.2,0.1l-0.4,0.1l-0.2,0.1l-0.2,0.1h-0.2l-0.2,0.1
					l-0.2,0.1l-0.4,0.1l-0.2,0.1h-0.2l-0.2,0.1h-0.2l-0.2,0.1h-0.2h-0.2l-0.2,0.1h-0.2h-0.2h-0.2l-0.2,0.1h-0.2h-0.2h-0.2h-0.2H629
					l-6.1,2.7l-9.1,3.9l-9.2,4l-2.6,6l-4,9.2l-4,9.1l0.4,8.3l0.5,10l0.5,10l0.4,10l0.5,9.9l0.5,10l0.5,10l0.4,10l0.5,10l0.5,10
					l0.5,10l0.4,10l0.5,9.9l0.5,10l0.4,10l0.5,10l0.5,10l0.5,10l0.5,10l0.4,10l0.5,10l0.5,10l0.4,9.9l0.5,10l0.5,10l0.5,10l0.4,10
					l0.5,10l0.5,10l0.5,10l0.4,9.9l0.5,10l0.5,10l0.4,10l0.5,10l0.5,10l0.5,10l0.5,10l0.4,10l0.5,10l0.5,9.9l0.4,10l6.5,7.6l6.6,7.5
					l7.2,3.4l9,4.3l9.1-3.1l9.5-3.2l9.5-3.2l9.4-3.2l9.5-3.2l9.5-3.2l9.4-3.2l9.5-3.2l2.5-1.5l8.5-5.2l8.5-5.3l8.5-5.2l8.6-5.2
					l8.5-5.2l8.6-5.2l8.5-5.2l8.5-5.3l8.5-5.2l8.6-5.2l8.5-5.2l3.3-3.7l6.6-7.4l6.7-7.5l6.7-7.5l6.6-7.4l6.7-7.5l6.6-7.4l6.7-7.5
					l6.6-7.5l6.7-7.4l-0.9,0.2l-9.8,2.2l-9.7,2.2l-9.1-0.2l-10-0.3l-10-0.3l-10-0.2l-10-0.3l8.8-7l7.9-6.2l7.8-6.2l7.8-6.2l7.9-6.2
					l7.8-6.3l7.8-6.2l7.9-6.2l7.8-6.2l7.8-6.2l7.9-6.2l7.8-6.3l7.8-6.2l7.9-6.2l7.8-6.2l7.8-6.2l7.9-6.2l7.8-6.3l7.8-6.2l7.9-6.2
					l0.3,11.3l0.2,10l0.3,9.9l0.3,10l0.2,10l0.3,10l0.3,10l0.3,10l0.3,10l0.2,10l0.3,10l0.3,10l0.2,10l0.3,10l0.3,10l0.3,10l0.2,10
					l0.3,10l0.3,10l0.3,10l-6-6.8l-6.7-7.5l-6.6-7.5l-6.6-7.5l-6.7-7.4l-3.9-7.7l-4.6-8.9l-5.4,7.5l-5.8,8.1l-5.9,8.1l-5.8,8.2
					l-5.8,8.1l-5.9,8.1l-5.8,8.1l-5.8,8.1l-5.9,8.1l-5.8,8.2l-5.9,8.1l-5.8,8.1l-5.8,8.1l-5.9,8.2l-4,2.6l-8.4,5.5l-8.3,5.5
					l-8.4,5.5l-8.3,5.5l-8.4,5.5l-8.3,5.5l-8.4,5.5l-8.3,5.4l-8.4,5.5l-8.4,5.5l-8.3,5.5L745,933l-8.3,5.5l-8.4,5.5l-8.3,5.5
					l-8.2,2.5l-9.5,3l-9.5,3l-9.6,3l-9.5,3l-9.6,2.9l-9.5,3l-9.6,3l-9.5,2.9l-9.6,3l-9.5,3l-9.6,3l-9.5,3l-9.6,2.9l-9.5,3l-9.6,3
					l-9.5,3l-9.6,2.9l-9.5,3l-8.1-2.5l-9.6-3l-9.5-3l-9.6-2.9l-9.5-3l-9.5-3l-9.6-3l-9.5-3l-9.6-2.9l-9.5-3l-9.6-3l-9.5-3l-9.6-2.9
					l-9.5-3l-9.6-3l-9.5-3l-9.6-2.9l-9.5-3l-9.6-3l-4-2.7l-8.3-5.4l-8.4-5.5l-8.4-5.5l-8.3-5.5l-8.4-5.5l-8.3-5.5l-8.4-5.5l-8.3-5.5
					l-8.4-5.5l-8.3-5.5l-8.4-5.5l-8.4-5.5l-8.3-5.5l-8.4-5.5l-8.3-5.4l-5.4-7.5l-11.7-16.3l-5.8-8.1l-5.9-8.1l-5.8-8.1l-11.7-16.3
					l-5.8-8.1l-5.9-8.1l-5.8-8.1l-11.7-16.3l-5.8-8.1l-3.9,7.7l-4.6,8.9l-6,6.7l-6.7,7.5l-6.6,7.5l-6.6,7.5l-6.7,7.5l0.4-11.3
					l0.2-10l0.3-9.9l0.3-10l0.3-10l0.2-10l0.3-10l0.3-10l0.2-10l0.3-10l0.3-10l0.3-10l0.2-10l0.3-10l0.3-10l0.3-10l0.2-10l0.3-10
					l0.3-10l0.2-10l8.9,7l7.8,6.2l7.8,6.2l7.9,6.3l7.8,6.2l7.8,6.2l7.9,6.2l7.8,6.2l7.8,6.2l7.9,6.3l7.8,6.2l7.8,6.2l7.9,6.2
					l7.8,6.2l7.8,6.2l7.9,6.3l7.8,6.2l7.8,6.2l7.9,6.2l7.8,6.2l-9.1,0.2l-20,0.6l-10,0.3l-10,0.2l-0.9-0.2l-9.7-2.2l-9.8-2.2
					l3.3,3.7l6.6,7.4l6.7,7.5l6.6,7.4l6.7,7.5l13.3,14.9l6.7,7.5l6.6,7.4l6.7,7.5l2.4,1.5l8.6,5.2l8.5,5.2l8.5,5.2l8.6,5.3l8.5,5.2
					l8.5,5.2l8.6,5.2l8.5,5.2l8.5,5.2l8.6,5.3l8.5,5.2l9.1,3l9.4,3.3l9.5,3.2l9.5,3.2l9.5,3.2l9.4,3.2l9.5,3.2l9.5,3.2l7.2-3.4
					l9-4.3l6.5-7.5l6.6-7.6l0.3-8.2l0.5-10l0.5-10l0.5-10l0.4-10l0.5-10l0.5-10l0.5-9.9l0.4-10l0.5-10l0.5-10l0.5-10l0.4-10l0.5-10
					l0.5-10l0.5-9.9l0.4-10l0.5-10l0.5-10l0.4-10l0.5-10l0.5-10l0.5-10l0.4-10l0.5-9.9l0.5-10l0.5-10l0.4-10l0.5-10l0.5-10l0.5-10
					l0.4-10l0.5-10l0.5-10l0.5-9.9l0.4-10l0.5-10l0.5-10l0.4-10l0.5-10l0.5-10l0.5-10l-2.6-5.9l-4-9.2l-4-9.2l-6.1-2.6l-9.2-4
					l-9.1-4H327.3h-0.2h-0.2h-0.2h-0.2l-0.2-0.1h-0.2h-0.2h-0.2l-0.2-0.1h-0.2h-0.2l-0.2-0.1h-0.2l-0.2-0.1h-0.2l-0.2-0.1l-0.4-0.1
					l-0.2-0.1l-0.2-0.1h-0.2l-0.2-0.1l-0.2-0.1l-0.4-0.1l-0.2-0.1l-0.2-0.1l-0.1-0.1l-0.2-0.1l-0.2-0.1l-0.2-0.1l-0.2-0.1l-0.3-0.2
					l-0.2-0.2l-0.2-0.1l-0.1-0.1l-0.2-0.1l-0.2-0.2l-0.1-0.1l-0.2-0.1l-0.1-0.1l-0.2-0.2l-0.2-0.1l-0.1-0.2l-0.1-0.1l-0.2-0.2
					l-0.1-0.1l-0.2-0.1l-0.1-0.2l-0.2-0.2l-0.1-0.1l-0.1-0.2l-0.1-0.1l-0.2-0.2l-0.1-0.2l-0.1-0.1l-0.1-0.2l-0.2-0.2l-0.2-0.3
					l-0.1-0.2l-0.1-0.2l-0.1-0.2l-0.1-0.2l-0.1-0.1l-0.1-0.2l-0.1-0.2l-0.1-0.4l-0.1-0.2l-0.1-0.2v-0.2l-0.1-0.2l-0.1-0.2l-0.1-0.4
					l-0.1-0.2v-0.2l-0.1-0.2v-0.2l-0.1-0.2v-0.2v-0.2l-0.1-0.2v-0.2v-0.2v-0.2l-0.1-0.2v-0.2v-0.2v-0.2v-0.2v-65.4v-0.2v-0.2v-0.2
					v-0.2l0.1-0.2v-0.2v-0.2v-0.2l0.1-0.2v-0.2v-0.2l0.1-0.2v-0.2l0.1-0.2v-0.2l0.1-0.2l0.1-0.4l0.1-0.2l0.1-0.2v-0.2l0.1-0.2
					l0.1-0.2l0.1-0.4l0.1-0.2l0.1-0.2l0.1-0.1l0.1-0.2l0.1-0.2l0.1-0.2l0.1-0.2l0.2-0.3l0.2-0.2l0.1-0.2l0.1-0.1l0.1-0.2l0.2-0.2
					l0.1-0.1l0.1-0.2l0.1-0.1l0.2-0.2l0.1-0.2l0.2-0.1l0.1-0.1l0.2-0.2l0.1-0.1l0.1-0.2l0.2-0.1l0.2-0.2l0.1-0.1l0.2-0.1l0.1-0.1
					l0.2-0.2l0.2-0.1l0.1-0.1l0.2-0.1l0.2-0.2l0.3-0.2l0.2-0.1l0.2-0.1l0.2-0.1l0.2-0.1l0.1-0.1l0.2-0.1l0.2-0.1l0.4-0.1l0.2-0.1
					l0.2-0.1h0.2l0.2-0.1l0.2-0.1l0.4-0.1l0.2-0.1h0.2l0.2-0.1h0.2l0.2-0.1h0.2h0.2l0.2-0.1h0.2h0.2h0.2l0.2-0.1h0.2h0.2h0.2h0.2
					h131.9l5.6-2.4l9.2-4l9.1-4l2.5-5.6l3.9-9.2l4-9.1l0.2-4.5l0.5-10l0.5-10v-0.1l-0.8-10l-2.6-2.4l-7.4-6.7l0.1-0.1l-1.6-1.3
					l-1.9-1.6l-1.9-1.7l-1.8-1.7l-1.8-1.8l-1.7-1.8l-1.6-1.9l-1.6-1.9l-1.6-2l-1.5-2l-1.4-2l-1.4-2.1l-1.3-2.2l-1.3-2.1l-1.2-2.2
					l-1.1-2.3l-1.1-2.2l-1-2.3l-0.9-2.3l-0.9-2.3l-0.8-2.4l-0.8-2.4l-0.7-2.4l-0.6-2.4l-0.5-2.5l-0.5-2.4l-0.5-2.5l-0.3-2.5
					l-0.3-2.5l-0.2-2.4l-0.1-2.6l-0.1-2.4v-2.6l0.1-2.4l0.1-2.6l0.2-2.4l0.3-2.5l0.3-2.5l0.5-2.5l0.5-2.4l0.5-2.5l0.6-2.4l0.7-2.4
					l0.8-2.4l0.8-2.4l0.9-2.3l0.9-2.3l1-2.3l1.1-2.2l1.1-2.3l1.2-2.2l1.3-2.1l1.3-2.2l1.4-2.1l1.4-2l1.5-2l1.6-2l1.6-1.9l1.6-1.9
					l1.7-1.8l1.8-1.8l1.8-1.7l1.9-1.7l1.9-1.6l1.9-1.6l2-1.5l2-1.5l2.1-1.4l2.1-1.3l2.1-1.3l2.2-1.3l2.2-1.1l2.3-1.1l2.2-1.1l2.3-1
					l2.4-0.9l2.3-0.8l2.4-0.8l2.4-0.7l2.4-0.7l2.5-0.6l2.4-0.5l2.5-0.4l2.4-0.4l2.5-0.3l2.5-0.3l2.5-0.2l2.5-0.1h2.5L542.5,76.5
					 M542.5,46.5H540h-2.5c-0.4,0-0.8,0-1.2,0l-2.5,0.1c-0.4,0-0.8,0-1.2,0.1l-2.5,0.2c-0.4,0-0.8,0.1-1.2,0.1l-2.5,0.3l-2.5,0.3
					c-0.5,0.1-0.9,0.1-1.4,0.2l-2.3,0.4l-2.4,0.4c-0.5,0.1-0.9,0.2-1.4,0.3l-2.4,0.5c-0.3,0.1-0.6,0.1-0.9,0.2l-2.5,0.6
					c-0.5,0.1-0.9,0.2-1.4,0.4l-2.4,0.7l-2.4,0.7c-0.4,0.1-0.7,0.2-1.1,0.3L501,53c-0.1,0-0.2,0.1-0.4,0.1l-2.3,0.8
					c-0.2,0.1-0.5,0.2-0.7,0.2l-2.4,0.9c-0.5,0.2-1,0.4-1.4,0.6l-2.3,1c-0.5,0.2-1,0.4-1.5,0.7l-2,1l-2.1,1
					c-0.2,0.1-0.3,0.2-0.5,0.2l-2.2,1.1c-0.6,0.3-1.2,0.6-1.8,1l-2.2,1.3c-0.2,0.1-0.4,0.2-0.5,0.3l-2.1,1.3l-2.1,1.3
					c-0.3,0.2-0.6,0.4-0.9,0.5l-2.1,1.4c-0.5,0.3-0.9,0.6-1.4,1l-2,1.5l-2,1.5c-0.5,0.3-0.9,0.7-1.3,1.1l-1.9,1.6L461,76
					c-0.2,0.2-0.5,0.4-0.7,0.6l-1.9,1.7c-0.2,0.2-0.4,0.4-0.6,0.5l-1.8,1.7c-0.2,0.2-0.4,0.4-0.6,0.6l-1.8,1.8
					c-0.2,0.2-0.4,0.4-0.6,0.6l-1.7,1.8c-0.4,0.4-0.8,0.8-1.1,1.3l-1.6,1.9l-1.6,1.9c-0.2,0.2-0.3,0.4-0.5,0.6l-1.6,2
					c-0.2,0.2-0.4,0.5-0.6,0.7l-1.5,2c-0.2,0.3-0.4,0.5-0.6,0.8l-1.4,2c-0.1,0.2-0.3,0.4-0.4,0.6l-1.4,2.1c-0.3,0.5-0.6,0.9-0.9,1.4
					l-1.1,1.9l-1.1,1.8c-0.3,0.5-0.6,0.9-0.8,1.4l-1.2,2.2c-0.3,0.5-0.5,0.9-0.7,1.4l-1,2.1l-1,2c-0.2,0.5-0.5,1-0.7,1.5l-1,2.3
					c-0.1,0.3-0.3,0.7-0.4,1l-0.9,2.3l-0.9,2.3c-0.2,0.5-0.4,1-0.5,1.4l-0.8,2.4l-0.8,2.4c-0.1,0.4-0.2,0.7-0.3,1.1l-0.7,2.4
					c-0.1,0.4-0.2,0.7-0.3,1.1l-0.6,2.4c-0.1,0.5-0.2,0.9-0.3,1.4l-0.5,2.4l-0.5,2.3c0,0.1,0,0.2,0,0.2l-0.5,2.5
					c-0.2,0.8-0.3,1.5-0.4,2.3l-0.3,2.5l-0.3,2.5c0,0.4-0.1,0.7-0.1,1.1l-0.2,2.4c0,0.4-0.1,0.9-0.1,1.3l-0.1,2.6v2.5
					c0,0.4,0,0.8,0,1.2v2.6c0,0.4,0,0.8,0,1.2l0.1,2.3l0.1,2.6c0,0.4,0,0.9,0.1,1.3l0.2,2.4c0,0.4,0.1,0.7,0.1,1.1l0.3,2.5l0.3,2.5
					c0.1,0.8,0.2,1.5,0.4,2.3l0.5,2.5c0,0.1,0,0.2,0,0.2l0.5,2.3l0.5,2.4c0.1,0.5,0.2,0.9,0.3,1.4l0.6,2.4c0.1,0.4,0.2,0.8,0.3,1.1
					l0.7,2.4c0.1,0.4,0.2,0.7,0.3,1.1l0.8,2.4l0.8,2.4c0.2,0.5,0.3,1,0.5,1.4l0.9,2.3l0.9,2.3c0.1,0.3,0.3,0.7,0.4,1l1,2.3
					c0.2,0.5,0.4,1,0.7,1.5l1,2l1,2.1c0.2,0.5,0.5,1,0.7,1.4l1.2,2.2c0.3,0.5,0.5,1,0.8,1.4l1.1,1.8l1.1,1.9
					c0.3,0.5,0.6,0.9,0.9,1.4l1.4,2.1c0.1,0.2,0.3,0.4,0.4,0.6l1.4,2c0.2,0.3,0.4,0.5,0.6,0.8l1.5,2c0.2,0.2,0.4,0.5,0.6,0.7l1.6,2
					c0.2,0.2,0.3,0.4,0.5,0.6l1.6,1.9l1.6,1.9c0.4,0.4,0.7,0.9,1.1,1.3l1.7,1.8c0.2,0.2,0.4,0.4,0.6,0.6l1.8,1.8
					c0.2,0.2,0.4,0.4,0.6,0.6l1.8,1.7c0.2,0.2,0.4,0.4,0.6,0.5l1.9,1.7c0.2,0.2,0.5,0.4,0.7,0.6l1.6,1.3c0.3,0.3,0.7,0.7,1,1
					l0.7,0.6l-0.2,4.8l-0.5,9l-1.7,4c-0.1,0.1-0.1,0.2-0.2,0.4l-1.6,3.8L453,285H327.3h-0.2h-0.2h-0.2h-0.2c-1.4,0-2.8,0.1-4.1,0.3
					c-0.6,0.1-1.3,0.2-1.9,0.3c-1,0.1-1.9,0.3-2.8,0.6c-0.1,0-0.3,0.1-0.4,0.1c-0.9,0.2-1.8,0.5-2.7,0.8c-0.2,0.1-0.4,0.1-0.6,0.2
					c-0.6,0.2-1.2,0.4-1.7,0.6c-1.1,0.4-2.2,0.9-3.3,1.4l-0.2,0.1l-0.2,0.1c-0.5,0.3-1.1,0.6-1.6,0.9c-0.9,0.5-1.7,1-2.5,1.5
					l-0.3,0.2c-0.4,0.3-0.8,0.5-1.1,0.8c-0.7,0.5-1.3,0.9-1.9,1.4c-0.2,0.1-0.3,0.3-0.5,0.4c-1.1,0.9-2.1,1.8-3.1,2.8
					s-1.9,2-2.8,3.1c-0.1,0.2-0.3,0.3-0.4,0.5c-0.5,0.6-1,1.3-1.4,1.9c-0.3,0.4-0.5,0.8-0.8,1.1l-0.2,0.3c-0.5,0.8-1,1.7-1.5,2.5
					c-0.3,0.5-0.6,1.1-0.9,1.6l-0.1,0.2l-0.1,0.2c-0.5,1.1-1,2.2-1.4,3.3c-0.2,0.6-0.4,1.2-0.6,1.7c-0.1,0.2-0.1,0.4-0.2,0.6
					c-0.3,0.9-0.6,1.8-0.8,2.7c0,0.1-0.1,0.3-0.1,0.4c-0.2,0.9-0.4,1.9-0.6,2.8c-0.1,0.6-0.2,1.3-0.3,1.9c-0.2,1.4-0.3,2.7-0.3,4.1
					v0.2v0.2v0.2v0.2v65.4v0.2v0.2v0.2v0.2c0,1.4,0.1,2.8,0.3,4.1c0.1,0.6,0.2,1.3,0.3,1.9c0.1,1,0.3,1.9,0.6,2.8
					c0,0.1,0.1,0.3,0.1,0.4c0.2,0.9,0.5,1.8,0.8,2.7c0.1,0.2,0.1,0.4,0.2,0.6c0.2,0.6,0.4,1.2,0.6,1.7c0.4,1.1,0.9,2.2,1.4,3.3
					l0.1,0.2l0.1,0.2c0.3,0.5,0.6,1.1,0.9,1.6c0.5,0.9,1,1.7,1.5,2.5l0.2,0.3c0.3,0.4,0.5,0.8,0.8,1.1c0.5,0.7,0.9,1.3,1.4,1.9
					c0.1,0.2,0.3,0.3,0.4,0.5c0.9,1.1,1.8,2.1,2.8,3.1s2,1.9,3.1,2.8c0.2,0.1,0.3,0.3,0.5,0.4c0.6,0.5,1.3,1,1.9,1.4
					c0.4,0.3,0.8,0.5,1.1,0.8l0.3,0.2c0.8,0.5,1.7,1,2.5,1.5c0.5,0.3,1.1,0.6,1.6,0.9l0.2,0.1l0.2,0.1c1.1,0.5,2.2,1,3.3,1.4
					c0.6,0.2,1.2,0.4,1.7,0.6c0.2,0.1,0.4,0.1,0.6,0.2c0.9,0.3,1.8,0.6,2.7,0.8c0.1,0,0.3,0.1,0.4,0.1c0.9,0.2,1.9,0.4,2.8,0.6
					c0.6,0.1,1.3,0.2,1.9,0.3c1.4,0.2,2.7,0.3,4.1,0.3h0.2h0.2h0.2h0.2h117.4l3.3,1.5h0.1l4.5,2l3.1,7l-0.1,2.9l-0.5,10l-0.5,10
					c0,0.1,0,0.2,0,0.3l-0.4,9.8l-0.5,9.9l-0.5,10c0,0.1,0,0.2,0,0.3l-0.4,9.8l-0.5,9.8l-0.5,10l-0.5,10c0,0.1,0,0.2,0,0.3l-0.4,9.8
					l-0.5,9.9l-0.5,10l-0.5,10c0,0.1,0,0.2,0,0.3l-0.4,9.8l-0.5,9.9l-0.5,10l-0.5,9.9c0,0.1,0,0.2,0,0.3l-0.4,9.8l-0.5,9.9l-0.5,10
					l-0.5,10c0,0.1,0,0.2,0,0.3l-0.4,9.8l-0.5,9.9l-0.5,10c0,0.1,0,0.2,0,0.3l-0.4,9.8l-0.5,9.8l-0.5,10l-0.5,10c0,0.1,0,0.2,0,0.3
					l-0.4,9.8l-0.5,9.9l-0.5,10l-0.5,10c0,0.1,0,0.2,0,0.3L440,778l-0.5,9.8l-0.5,10l-0.5,10c0,0.1,0,0.2,0,0.3l-0.4,9.8l-0.5,9.9
					l-0.5,10l-0.4,8l-1.9,2.1l-7.3-2.5l-9.3-3.2h-0.1l-9.5-3.2l-9.5-3.2l-9.3-3.1l-9.2-3.2c-0.2-0.1-0.4-0.1-0.5-0.2l-5.8-1.9
					l-5.5-3.4l-8.6-5.3c0,0-0.1,0-0.1-0.1l-8.5-5.2l-8.5-5.2l-0.1-0.1l-8.5-5.2l-8.4-5.2l-8.5-5.2l-8.6-5.3c0,0-0.1,0-0.1-0.1
					l-8.5-5.2l-8.5-5.2l-0.1-0.1l-7.1-4.3l-3.8-4.2l-6.6-7.4l-2.4-2.6h0.2c12.6-0.3,23.7-8.4,27.8-20.4c4-12,0.1-25.2-9.8-33.1
					l-7.8-6.2l-0.1-0.1l-7.8-6.1l-7.7-6.1l-7.8-6.2L251,674l-7.8-6.2l-7.8-6.2l-0.1-0.1l-7.8-6.1l-7.7-6.1l-7.8-6.2l-7.9-6.3
					l-7.8-6.2l-7.8-6.2l-0.1-0.1l-7.8-6.1l-7.7-6.1l-7.8-6.2l-7.9-6.3l-7.8-6.2l-7.8-6.2l-0.1-0.1l-8.9-7
					c-5.4-4.2-11.9-6.4-18.6-6.4c-4.4,0-8.7,0.9-12.8,2.9c-10.3,4.9-16.9,15.1-17.2,26.5l-0.2,9.8l-0.3,9.9l-0.3,10
					c0,0.1,0,0.2,0,0.3l-0.2,9.8l-0.3,9.9l-0.3,10l-0.3,10c0,0.1,0,0.2,0,0.3l-0.2,9.8l-0.3,9.9l-0.3,10l-0.3,10c0,0.1,0,0.2,0,0.3
					l-0.2,9.8l-0.3,9.9l-0.3,10c0,0.1,0,0.2,0,0.3l-0.2,9.8l-0.3,9.9l-0.3,10l-0.3,9.9c0,0.1,0,0.2,0,0.3l-0.2,9.8l-0.4,11.1
					c-0.4,12.6,7.1,24.2,18.8,28.9c3.6,1.5,7.4,2.2,11.2,2.2c8.4,0,16.6-3.5,22.4-10l6.7-7.5c0-0.1,0.1-0.1,0.1-0.2l6.6-7.5l5.5-6.3
					l4.6,6.4l5.7,8l11.7,16.3l5.8,8.1c0,0.1,0.1,0.1,0.1,0.2l5.8,8l5.7,8l11.7,16.3l5.4,7.5c2.2,3,4.9,5.6,8,7.6l8.3,5.4l8.3,5.4
					l8.2,5.5l0.1,0.1l8.4,5.5l8.3,5.5l8.2,5.5l0.1,0.1l8.3,5.5l8.2,5.5l0.1,0.1l8.3,5.5l8.2,5.5l0.1,0.1l8.3,5.5l8.2,5.5l0.1,0.1
					l8.4,5.5l8.4,5.5c0,0,0,0,0.1,0l8.1,5.3l3.8,2.6c2.4,1.6,5.1,2.9,7.8,3.8l9.6,3l9.4,3c0.1,0,0.2,0.1,0.4,0.1l9.4,2.8l9.3,2.9
					h0.1l9.6,3l9.4,3c0.1,0,0.2,0.1,0.4,0.1l9.4,2.8l9.3,2.9h0.1l9.6,3l9.4,3c0.1,0,0.2,0.1,0.4,0.1l9.4,2.8l9.3,2.9h0.1l9.6,3
					l9.4,3l9.5,3c0.1,0,0.2,0.1,0.4,0.1l9.4,2.8l9.3,2.9h0.1l9.6,3h0.1l8.1,2.5c2.9,0.9,5.9,1.3,8.8,1.3c3,0,6.1-0.5,9-1.4l9.3-2.9
					l9.4-2.8c0.1,0,0.2-0.1,0.4-0.1l9.4-3l9.6-3h0.1l9.3-2.9l9.4-2.8c0.1,0,0.2-0.1,0.4-0.1l9.4-3l9.6-3h0.1l9.4-3l9.5-3l9.4-2.9
					c0.1,0,0.1,0,0.2-0.1l9.6-3h0.1l9.3-2.9l9.4-2.8c0.1,0,0.2-0.1,0.4-0.1l9.4-3l9.6-3h0.1l9.5-3l9.4-3l8.1-2.5
					c2.8-0.8,5.4-2.1,7.8-3.7l8.2-5.5l8.3-5.5l0.1-0.1l8.2-5.5l8.3-5.5l0.1-0.1l8.2-5.5l8.3-5.5l8.4-5.5l8.3-5.4c0,0,0,0,0.1,0
					l8.4-5.5l0.1-0.1l8.2-5.5l8.3-5.5l0.1-0.1l8.2-5.5l8.3-5.5l0.1-0.1l8.2-5.5l8.3-5.4l4-2.6c3.1-2,5.8-4.6,8-7.6l5.9-8.2
					c0,0,0,0,0-0.1l5.8-8.1l5.7-8l5.8-8c0.1-0.1,0.2-0.2,0.2-0.3l5.7-8l5.8-7.9c0-0.1,0.1-0.1,0.1-0.2l5.8-8.1l5.7-8l5.8-8
					c0-0.1,0.1-0.1,0.1-0.2l4-5.6l6.2,7c0,0.1,0.1,0.1,0.1,0.2l6.6,7.4l5.9,6.7c5.8,6.6,14.1,10.2,22.5,10.2c3.7,0,7.4-0.7,11-2.1
					c11.8-4.6,19.3-16.2,19-28.8l-0.3-10l-0.3-10l-0.3-9.9l-0.2-9.8c0-0.1,0-0.2,0-0.3l-0.3-10l-0.3-10l-0.3-9.9l-0.2-9.8
					c0-0.1,0-0.2,0-0.3l-0.3-10l-0.3-9.9l-0.2-9.8c0-0.1,0-0.2,0-0.3l-0.3-10l-0.3-10l-0.3-10l-0.3-9.9l-0.2-9.8c0-0.1,0-0.2,0-0.3
					l-0.3-10l-0.3-9.8l-0.2-9.8c0-0.1,0-0.1,0-0.2l-0.3-11.3c-0.3-11.3-7-21.5-17.2-26.4c-4.1-1.9-8.4-2.9-12.8-2.9
					c-6.6,0-13.1,2.2-18.5,6.4l-7.9,6.2l-0.1,0.1l-7.8,6.2c-0.1,0-0.1,0.1-0.2,0.1l-7.6,6.2l-7.7,6.1l-0.1,0.1l-7.8,6.2l-7.7,6.1
					l-7.8,6.1l-0.1,0.1l-7.8,6.2c-0.1,0-0.1,0.1-0.2,0.1L877,636l-7.7,6.1l-0.1,0.1l-7.8,6.2l-7.7,6.1l-7.8,6.1l-0.1,0.1l-7.8,6.2
					c-0.1,0-0.1,0.1-0.2,0.1l-7.6,6.2l-7.7,6.1l-0.1,0.1l-7.8,6.2l-7.7,6.1l-7.8,6.1c-0.1,0-0.1,0.1-0.2,0.1l-8.8,7
					c-9.9,7.8-13.8,21-9.8,32.9s15,20.1,27.6,20.5h0.5l-5.7,6.4l-6.6,7.4l-0.3,0.4l-4.6,2.8l-8.5,5.2l-0.1,0.1l-8.5,5.2
					c-0.1,0-0.1,0.1-0.2,0.1l-8.4,5.2l-8.3,5.1l-8.5,5.2l-0.1,0.1l-8.4,5.2l-8.5,5.2l-0.1,0.1l-8.5,5.2c-0.1,0-0.1,0.1-0.2,0.1
					l-8.4,5.2l-7.9,4.8l-6.4,2.2h-0.1L690,833l-9.5,3.2l-9.5,3.2h-0.1l-9.3,3.2l-9.5,3.2l-7,2.4l-1.8-2l-0.5-9.8l-0.5-9.8l-0.4-9.8
					c0-0.1,0-0.2,0-0.3l-0.5-10l-0.5-10l-0.5-10l-0.5-9.9l-0.4-9.8c0-0.1,0-0.2,0-0.3l-0.5-10l-0.5-9.9l-0.4-9.8c0-0.1,0-0.2,0-0.3
					l-0.5-10l-0.5-10l-0.5-9.9l-0.4-9.8c0-0.1,0-0.2,0-0.3l-0.5-10l-0.5-10l-0.5-9.9l-0.4-9.8c0-0.1,0-0.2,0-0.3l-0.5-10l-0.5-9.9
					l-0.4-9.8c0-0.1,0-0.2,0-0.3l-0.5-10l-0.5-10l-0.5-10l-0.5-9.9l-0.4-9.8c0-0.1,0-0.2,0-0.3l-0.5-10l-0.5-9.8l-0.4-9.8
					c0-0.1,0-0.2,0-0.3l-0.5-10l-0.5-10l-0.5-9.9l-0.4-9.8c0-0.1,0-0.2,0-0.3l-0.5-10l-0.5-10l-0.5-9.8l-0.4-9.8c0-0.1,0-0.2,0-0.3
					l-0.5-10l-0.5-9.9l0,0l-0.1-1.2l1.2-2.6v-0.1l1.9-4.4l7.3-3.1c0.1,0,0.2-0.1,0.3-0.1l0.3-0.1h117.4h0.2h0.2h0.2h0.2
					c1.4,0,2.8-0.1,4.1-0.3c0.6-0.1,1.3-0.2,1.9-0.3c1-0.1,1.9-0.3,2.8-0.6c0.1,0,0.3-0.1,0.4-0.1c0.9-0.2,1.8-0.5,2.7-0.8
					c0.2-0.1,0.4-0.1,0.6-0.2c0.6-0.2,1.2-0.4,1.7-0.6c1.1-0.4,2.2-0.9,3.3-1.4l0.2-0.1l0.2-0.1c0.5-0.3,1.1-0.6,1.6-0.9
					c0.9-0.5,1.7-1,2.5-1.5l0.3-0.2c0.4-0.3,0.8-0.5,1.1-0.8c0.7-0.5,1.3-0.9,1.9-1.4c0.2-0.1,0.3-0.3,0.5-0.4
					c1.1-0.9,2.1-1.8,3.1-2.8s1.9-2,2.8-3.1c0.1-0.2,0.3-0.3,0.4-0.5c0.5-0.6,1-1.3,1.4-1.9c0.3-0.4,0.5-0.8,0.8-1.1l0.2-0.3
					c0.5-0.8,1-1.7,1.5-2.5c0.3-0.5,0.6-1.1,0.9-1.6l0.1-0.2l0.1-0.2c0.5-1.1,1-2.2,1.4-3.3c0.2-0.6,0.4-1.2,0.6-1.7
					c0.1-0.2,0.1-0.4,0.2-0.6c0.3-0.9,0.6-1.8,0.8-2.7c0-0.1,0.1-0.3,0.1-0.4c0.2-0.9,0.4-1.9,0.6-2.8c0.1-0.6,0.2-1.3,0.3-1.9
					c0.2-1.4,0.3-2.7,0.3-4.1v-0.2v-0.2v-0.2V393v-65.4v-0.2v-0.2V327v-0.2c0-1.4-0.1-2.8-0.3-4.1c-0.1-0.6-0.2-1.3-0.3-1.9
					c-0.1-1-0.3-1.9-0.6-2.8c0-0.1-0.1-0.3-0.1-0.4c-0.2-0.9-0.5-1.8-0.8-2.7c-0.1-0.2-0.1-0.4-0.2-0.6c-0.2-0.6-0.4-1.2-0.6-1.7
					c-0.4-1.1-0.9-2.2-1.4-3.3l-0.1-0.2l-0.1-0.2c-0.3-0.5-0.6-1.1-0.9-1.6c-0.5-0.9-1-1.7-1.5-2.5l-0.2-0.3
					c-0.3-0.4-0.5-0.8-0.8-1.1c-0.5-0.7-0.9-1.3-1.4-1.9c-0.1-0.2-0.3-0.3-0.4-0.5c-0.9-1.1-1.8-2.1-2.8-3.1s-2-1.9-3.1-2.8
					c-0.2-0.1-0.3-0.3-0.5-0.4c-0.6-0.5-1.3-1-1.9-1.4c-0.4-0.3-0.8-0.5-1.1-0.8l-0.3-0.2c-0.8-0.5-1.7-1-2.5-1.5
					c-0.5-0.3-1.1-0.6-1.6-0.9l-0.2-0.1l-0.2-0.1c-1.1-0.5-2.2-1-3.3-1.4c-0.6-0.2-1.2-0.4-1.7-0.6c-0.2-0.1-0.4-0.1-0.6-0.2
					c-0.9-0.3-1.8-0.6-2.7-0.8c-0.1,0-0.3-0.1-0.4-0.1c-0.9-0.2-1.9-0.4-2.8-0.6c-0.6-0.1-1.3-0.2-1.9-0.3c-1.4-0.2-2.7-0.3-4.1-0.3
					h-0.2H753h-0.2h-0.2H627l-3.4-1.5l-4-1.7l-3.2-7.4l-0.2-0.6l-0.2-4.6l-0.5-9.3l0.9-0.9c0.3-0.3,0.6-0.5,0.8-0.8l1.6-1.3
					c0.2-0.2,0.5-0.4,0.7-0.6l1.9-1.7c0.2-0.2,0.4-0.4,0.6-0.5l1.8-1.7c0.2-0.2,0.4-0.4,0.6-0.6l1.8-1.8c0.2-0.2,0.4-0.4,0.6-0.6
					l1.7-1.8c0.4-0.4,0.8-0.8,1.1-1.3l1.6-1.9l1.6-1.9c0.2-0.2,0.3-0.4,0.5-0.6l1.6-2c0.2-0.2,0.4-0.5,0.6-0.7l1.5-2
					c0.2-0.3,0.4-0.5,0.6-0.8l1.4-2c0.1-0.2,0.3-0.4,0.4-0.6l1.4-2.1c0.3-0.5,0.6-0.9,0.9-1.4l1.1-1.9l1.1-1.8
					c0.3-0.5,0.6-0.9,0.8-1.4l1.2-2.2c0.3-0.5,0.5-0.9,0.7-1.4l1-2.1l1-2c0.2-0.5,0.5-1,0.7-1.5l1-2.3c0.1-0.3,0.3-0.7,0.4-1
					l0.9-2.3l0.9-2.3c0.2-0.5,0.4-1,0.5-1.4l0.8-2.4l0.8-2.4c0.1-0.4,0.2-0.7,0.3-1.1l0.7-2.4c0.1-0.4,0.2-0.7,0.3-1.1l0.6-2.4
					c0.1-0.5,0.2-0.9,0.3-1.4l0.5-2.4l0.5-2.3c0-0.1,0-0.2,0-0.2l0.5-2.5c0.2-0.8,0.3-1.5,0.4-2.3l0.3-2.5l0.3-2.5
					c0-0.4,0.1-0.7,0.1-1.1l0.2-2.4c0-0.4,0.1-0.9,0.1-1.3l0.1-2.6l0.1-2.3c0-0.4,0-0.8,0-1.2v-2.6c0-0.4,0-0.8,0-1.2l-0.1-2.3
					l-0.1-2.6c0-0.4,0-0.9-0.1-1.3l-0.2-2.4c0-0.4-0.1-0.7-0.1-1.1l-0.3-2.5l-0.3-2.5c-0.1-0.8-0.2-1.5-0.4-2.3l-0.5-2.5
					c0-0.1,0-0.2,0-0.2l-0.5-2.3l-0.5-2.4c-0.1-0.5-0.2-0.9-0.3-1.4l-0.6-2.4c-0.1-0.4-0.2-0.8-0.3-1.1l-0.7-2.4
					c-0.1-0.4-0.2-0.7-0.3-1.1l-0.8-2.4l-0.8-2.4c-0.2-0.5-0.3-1-0.5-1.4l-0.9-2.3l-0.9-2.3c-0.1-0.3-0.3-0.7-0.4-1l-1-2.3
					c-0.2-0.5-0.4-1-0.7-1.5l-1-2l-1-2.1c-0.2-0.5-0.5-1-0.7-1.4l-1.2-2.2c-0.3-0.5-0.5-1-0.8-1.4l-1.1-1.8l-1.1-1.9
					c-0.3-0.5-0.6-0.9-0.9-1.4l-1.4-2.1c-0.1-0.2-0.3-0.4-0.4-0.6l-1.4-2c-0.2-0.3-0.4-0.5-0.6-0.8l-1.5-2c-0.2-0.2-0.4-0.5-0.6-0.7
					l-1.6-2c-0.2-0.2-0.3-0.4-0.5-0.6l-1.6-1.9l-1.6-1.9c-0.4-0.4-0.7-0.9-1.1-1.3l-1.7-1.8c-0.2-0.2-0.4-0.4-0.6-0.6l-1.8-1.8
					c-0.2-0.2-0.4-0.4-0.6-0.6l-1.8-1.7c-0.2-0.2-0.4-0.4-0.6-0.5l-1.9-1.7c-0.2-0.2-0.5-0.4-0.7-0.6l-1.9-1.6l-1.9-1.6
					c-0.4-0.4-0.9-0.7-1.3-1.1l-2-1.5l-2-1.5c-0.4-0.3-0.9-0.7-1.4-1l-2.1-1.4c-0.3-0.2-0.6-0.4-0.9-0.5l-2.1-1.3l-2.1-1.3
					c-0.2-0.1-0.4-0.2-0.5-0.3l-2.2-1.3c-0.6-0.4-1.2-0.7-1.8-1l-2.2-1.1c-0.2-0.1-0.3-0.2-0.5-0.2l-2.1-1l-2-1
					c-0.5-0.2-1-0.5-1.5-0.7l-2.3-1c-0.5-0.2-0.9-0.4-1.4-0.6l-2.4-0.9c-0.2-0.1-0.5-0.2-0.7-0.2l-2.3-0.8c-0.1,0-0.2-0.1-0.4-0.1
					l-2.4-0.8c-0.4-0.1-0.7-0.2-1.1-0.3l-2.4-0.7l-2.4-0.7c-0.5-0.1-0.9-0.3-1.4-0.4l-2.5-0.6c-0.3-0.1-0.6-0.1-0.9-0.2l-2.4-0.5
					c-0.5-0.1-0.9-0.2-1.4-0.3l-2.4-0.4l-2.3-0.4c-0.5-0.1-0.9-0.1-1.4-0.2l-2.5-0.3l-2.5-0.3c-0.4,0-0.8-0.1-1.2-0.1l-2.5-0.2
					c-0.4,0-0.8-0.1-1.2-0.1l-2.5-0.1C543.3,46.5,542.9,46.5,542.5,46.5L542.5,46.5z"/>
			</g>
		</g>
	</g>
</g>
<g id="Layer_1_00000088093264138193242160000015477040333654465167_">
	<g id="ViewLayer_LineSet" xmlns:inkscape="http://www.inkscape.org/namespaces/inkscape">
		
			<g id="strokes" xmlns:inkscape="http://www.inkscape.org/namespaces/inkscape" inkscape:groupmode="layer" inkscape:label="strokes">
			<g>
				<path class="st3" d="M540,1020.6c-1.5,0-3-0.2-4.4-0.7l-8.1-2.5l-9.7-3l-9.5-3c0,0-9.6-2.9-9.7-2.9l-19-6l-9.6-3l-9.5-3
					c0,0-9.6-2.9-9.7-2.9l-9.5-3l-9.6-3l-9.5-3c0,0-9.6-2.9-9.7-2.9l-9.5-3l-9.6-3l-9.5-3c0,0-9.6-2.9-9.7-2.9l-9.5-3l-9.6-3
					c-1.4-0.4-2.7-1.1-3.9-1.9l-3.9-2.6l-8.2-5.3l-16.8-11l-8.4-5.5l-8.3-5.5l-8.4-5.5l-8.3-5.5l-8.4-5.5l-8.3-5.5l-8.4-5.5
					l-16.7-11l-8.4-5.5l-8.3-5.5l-8.3-5.4c-1.6-1-2.9-2.3-4-3.8l-5.4-7.5L201,849.5l-5.8-8.1l-5.9-8.1l-5.8-8.1l-11.7-16.3l-5.8-8.1
					l-5.9-8.1l-5.8-8.1l-3.8-5.3l-4.9,5.4l-6.7,7.4l-13.2,15l-6.7,7.5c-2.9,3.3-7,5-11.2,5c-1.9,0-3.8-0.4-5.6-1.1
					c-5.9-2.4-9.6-8.1-9.4-14.4l0.4-11.2l0.2-10l0.9-29.8c0,0,0.2-10,0.2-10.1l0.6-19.9c0,0,0.2-10,0.2-10.1l0.9-29.9
					c0,0,0.2-10,0.2-10.1l0.9-29.9c0,0,0.2-10,0.2-10.1l0.6-19.9l0.2-9.9c0.1-5.7,3.4-10.8,8.6-13.3c2-1,4.2-1.4,6.4-1.4
					c3.3,0,6.6,1.1,9.3,3.2l8.9,7l15.7,12.4l7.9,6.3l15.6,12.4l7.8,6.1l15.7,12.5l7.9,6.3l15.6,12.4l7.8,6.1l15.7,12.5l7.9,6.3
					l15.6,12.4l7.8,6.1l7.9,6.3c4.9,3.9,6.9,10.5,4.9,16.5s-7.6,10.1-13.9,10.2l-9,0.2l-23.5,0.7l23.8,26.7l6.6,7.4l5.3,5.9l0.5,0.3
					l8.5,5.1l17.1,10.4l8.6,5.3l17,10.4l8.5,5.2l17.1,10.4l8.6,5.3l7,4.3c0,0,7.6,2.5,7.7,2.5l9.3,3.3l28.4,9.6l9.4,3.2l13.2,4.5
					l1.7-0.8l6.1-2.9l4.5-5.1l3.1-3.6c0,0,0.1-3,0.1-3.1l1.5-29.9c0,0,0.4-10,0.4-10.1l1-20l0.5-9.8c0,0,0.4-10,0.4-10.1l1.5-29.9
					c0,0,0.4-10,0.4-10.1l1-20l0.5-9.8c0,0,0.4-10,0.4-10.1l1-19.9c0,0,0.4-10,0.4-10.1l2-29.9c0,0,0.4-10,0.4-10.1l1.5-29.8
					c0,0,0.4-10,0.4-10.1l1.5-29.9c0,0,0.4-10,0.4-10.1l1-20l0.5-9.8c0,0,0.4-10,0.4-10.1l1-19.9c0,0,0.4-10,0.4-10.1l1.3-26.5
					l-1.2-2.6l-5.6-13l-0.7-0.3l-9.2-4l-6.3-2.8H326.5c-0.8,0-1.5-0.1-2.3-0.2c-0.4,0-0.9-0.1-1.3-0.2c-0.6-0.1-1.1-0.2-1.7-0.3
					c-0.1,0-0.3-0.1-0.4-0.1c-0.5-0.1-1.1-0.3-1.6-0.5c-0.2-0.1-0.4-0.1-0.6-0.2c-0.4-0.1-0.8-0.3-1.2-0.4c-0.6-0.2-1.3-0.5-1.9-0.8
					l-0.4-0.2c-0.4-0.2-0.7-0.4-1.1-0.6c-0.5-0.3-1-0.6-1.5-0.9l-0.3-0.2c-0.2-0.2-0.5-0.3-0.7-0.5c-0.4-0.3-0.9-0.6-1.3-0.9
					c-0.2-0.1-0.3-0.3-0.5-0.4c-0.7-0.5-1.3-1.1-1.8-1.7c-0.6-0.6-1.2-1.2-1.7-1.8c-0.1-0.2-0.3-0.3-0.4-0.5
					c-0.3-0.4-0.6-0.8-0.9-1.3c-0.2-0.2-0.4-0.5-0.5-0.7l-0.2-0.3c-0.3-0.5-0.6-1-0.9-1.5c-0.2-0.3-0.4-0.7-0.6-1l-0.2-0.4
					c-0.3-0.6-0.6-1.2-0.8-1.8c-0.2-0.4-0.3-0.8-0.4-1.2c-0.1-0.2-0.1-0.4-0.2-0.6c-0.2-0.5-0.3-1.1-0.5-1.6c0-0.1-0.1-0.3-0.1-0.4
					c-0.1-0.5-0.3-1.1-0.3-1.7c-0.1-0.4-0.1-0.9-0.2-1.3c-0.1-0.7-0.2-1.5-0.2-2.3v-67c0-0.8,0.1-1.5,0.2-2.3c0-0.4,0.1-0.9,0.2-1.3
					c0.1-0.6,0.2-1.1,0.3-1.7c0-0.1,0.1-0.3,0.1-0.4c0.1-0.5,0.3-1.1,0.5-1.6c0.1-0.2,0.1-0.4,0.2-0.6c0.1-0.4,0.3-0.8,0.4-1.2
					c0.2-0.6,0.5-1.2,0.8-1.8l0.2-0.4c0.2-0.4,0.4-0.7,0.6-1c0.3-0.5,0.6-1,0.9-1.5l0.2-0.3c0.2-0.2,0.3-0.5,0.5-0.7
					c0.3-0.4,0.6-0.9,0.9-1.3c0.1-0.2,0.3-0.3,0.4-0.5c0.5-0.7,1.1-1.3,1.7-1.8c0.6-0.6,1.2-1.2,1.8-1.7c0.2-0.1,0.3-0.3,0.5-0.4
					c0.4-0.3,0.8-0.6,1.3-0.9c0.2-0.2,0.5-0.4,0.7-0.5l0.3-0.2c0.5-0.3,1-0.6,1.5-0.9c0.3-0.2,0.7-0.4,1.1-0.6l0.4-0.2
					c0.6-0.3,1.2-0.6,1.9-0.8c0.4-0.2,0.8-0.3,1.2-0.4c0.2-0.1,0.4-0.1,0.6-0.2c0.5-0.2,1.1-0.3,1.6-0.5c0.1,0,0.3-0.1,0.4-0.1
					c0.5-0.1,1.1-0.3,1.7-0.3c0.4-0.1,0.9-0.1,1.3-0.2c0.7-0.1,1.5-0.2,2.3-0.2h129.6l2.8-1.2l9.1-4l3.7-1.6l0.1-0.2l3.9-9.2
					l2.9-6.5l0.1-1.7l1-19.2l-0.3-3.2l-5.6-5.1c-0.3-0.3-0.6-0.6-0.9-0.9c-0.1-0.1-2.1-1.8-2.1-1.8c-0.1-0.1-0.2-0.2-0.3-0.3
					l-1.9-1.7c-0.1-0.1-0.2-0.2-0.3-0.3l-1.8-1.7c-0.1-0.1-0.2-0.2-0.3-0.3l-1.8-1.8c-0.1-0.1-0.2-0.2-0.3-0.3l-1.7-1.8
					c-0.2-0.2-0.4-0.4-0.6-0.6l-3.2-3.8c-0.1-0.1-0.2-0.2-0.2-0.3l-1.6-2c-0.1-0.1-0.2-0.2-0.3-0.4l-1.5-2c-0.1-0.1-0.2-0.3-0.3-0.4
					l-1.4-2c-0.1-0.1-0.1-0.2-0.2-0.3l-1.4-2.1c-0.2-0.2-0.3-0.5-0.4-0.7l-1.2-2.1l-1.2-2c-0.1-0.2-0.3-0.5-0.4-0.7l-1.2-2.2
					c-0.1-0.2-0.2-0.5-0.4-0.7l-1-2.2l-1-2.1c-0.1-0.2-0.2-0.5-0.3-0.7l-1-2.3c-0.1-0.2-0.1-0.3-0.2-0.5l-1.8-4.6
					c-0.1-0.2-0.2-0.5-0.3-0.7l-1.6-4.8c-0.1-0.2-0.1-0.4-0.2-0.5l-0.7-2.4c-0.1-0.2-0.1-0.4-0.2-0.6L438,191
					c-0.1-0.2-0.1-0.5-0.2-0.7l-0.5-2.4c0,0-0.5-2.4-0.5-2.5l-0.5-2.5c-0.1-0.4-0.1-0.8-0.2-1.2l-0.6-5c0-0.2,0-0.4-0.1-0.5
					l-0.2-2.4c0-0.2,0-0.4,0-0.7l-0.1-2.6l-0.1-2.4c0-0.2,0-0.4,0-0.6v-2.6c0-0.2,0-0.4,0-0.6l0.1-2.4l0.1-2.6c0-0.2,0-0.4,0-0.7
					l0.2-2.4c0-0.2,0-0.4,0.1-0.5l0.6-5c0-0.4,0.1-0.8,0.2-1.2l0.5-2.6l0.5-2.3l0.5-2.4c0-0.2,0.1-0.5,0.2-0.7l0.6-2.4
					c0-0.2,0.1-0.4,0.2-0.6l0.7-2.4c0.1-0.2,0.1-0.4,0.2-0.5l1.6-4.8c0.1-0.2,0.2-0.5,0.3-0.7l1.8-4.6c0.1-0.2,0.1-0.3,0.2-0.5
					l1-2.3c0.1-0.2,0.2-0.5,0.3-0.7l1-2.1l1-2.2c0.1-0.2,0.2-0.5,0.4-0.7l1.2-2.2c0.1-0.2,0.3-0.5,0.4-0.7l1.2-2l1.2-2.1
					c0.1-0.2,0.3-0.5,0.4-0.7l1.4-2.1c0.1-0.1,0.1-0.2,0.2-0.3l1.4-2c0.1-0.1,0.2-0.3,0.3-0.4l1.5-2c0.1-0.1,0.2-0.2,0.3-0.4l1.6-2
					c0.1-0.1,0.2-0.2,0.2-0.3l3.2-3.8c0.2-0.2,0.4-0.4,0.6-0.6l1.7-1.8c0.1-0.1,0.2-0.2,0.3-0.3l1.8-1.8c0.1-0.1,0.2-0.2,0.3-0.3
					l1.8-1.7c0.1-0.1,0.2-0.2,0.3-0.3l1.9-1.7c0.1-0.1,0.2-0.2,0.3-0.3l3.8-3.2c0.2-0.2,0.4-0.4,0.7-0.5l4-3
					c0.2-0.2,0.4-0.3,0.7-0.5l2.1-1.4c0.1-0.1,0.3-0.2,0.4-0.3c0,0,4.4-2.7,4.5-2.8l2.2-1.3c0.3-0.2,0.6-0.3,0.9-0.5l2.4-1.2l2.2-1
					l2.1-1c0.2-0.1,0.5-0.2,0.7-0.3l2.3-1c0.2-0.1,0.5-0.2,0.7-0.3l2.4-0.9c0.1,0,0.2-0.1,0.3-0.1c0,0,2.4-0.8,2.5-0.9l2.4-0.8
					c0.2-0.1,0.4-0.1,0.5-0.2l4.8-1.4c0.2-0.1,0.5-0.1,0.7-0.2l2.5-0.6c0.1,0,0.3-0.1,0.4-0.1l2.4-0.5c0.2,0,0.5-0.1,0.7-0.1
					l2.5-0.4l2.3-0.4c0.2,0,0.5-0.1,0.7-0.1l5-0.6c0.2,0,0.4,0,0.6-0.1l2.5-0.2c0.2,0,0.4,0,0.6,0l2.5-0.1c0.2,0,0.4,0,0.6,0h5
					c0.2,0,0.4,0,0.6,0l2.5,0.1c0.2,0,0.4,0,0.6,0l2.5,0.2c0.2,0,0.4,0,0.6,0.1l5,0.6c0.2,0,0.5,0.1,0.7,0.1l2.4,0.4l2.4,0.4
					c0.2,0,0.5,0.1,0.7,0.1l2.4,0.5c0.1,0,0.3,0.1,0.4,0.1l2.5,0.6c0.2,0.1,0.5,0.1,0.7,0.2l4.8,1.4c0.2,0.1,0.4,0.1,0.5,0.2
					c0,0,2.5,0.8,2.6,0.9l2.3,0.8c0.1,0,0.2,0.1,0.3,0.1l2.4,0.9c0.2,0.1,0.5,0.2,0.7,0.3l2.3,1c0.2,0.1,0.5,0.2,0.7,0.3l2.1,1
					c0,0,2.3,1.1,2.4,1.2l2.2,1.1c0.3,0.2,0.6,0.3,0.9,0.5c0,0,2.4,1.4,2.5,1.5l4.2,2.6c0.1,0.1,0.3,0.2,0.4,0.3l2.1,1.4
					c0.2,0.2,0.5,0.3,0.7,0.5l4,3c0.2,0.2,0.4,0.3,0.7,0.5l3.8,3.2c0.1,0.1,0.2,0.2,0.3,0.3l1.9,1.7c0.1,0.1,0.2,0.2,0.3,0.3
					l1.8,1.7c0.1,0.1,0.2,0.2,0.3,0.3l1.8,1.8c0.1,0.1,0.2,0.2,0.3,0.3l1.7,1.8c0.2,0.2,0.4,0.4,0.6,0.6l3.2,3.8
					c0.1,0.1,0.2,0.2,0.2,0.3l1.6,2c0.1,0.1,0.2,0.2,0.3,0.4l1.5,2c0.1,0.1,0.2,0.3,0.3,0.4l1.4,2c0.1,0.1,0.1,0.2,0.2,0.3l1.4,2.1
					c0.2,0.2,0.3,0.5,0.4,0.7l1.2,2.1l1.2,2c0.1,0.2,0.3,0.5,0.4,0.7l1.2,2.2c0.1,0.2,0.2,0.5,0.4,0.7l1,2.2l1,2.1
					c0.1,0.2,0.2,0.5,0.3,0.7l1,2.3c0.1,0.2,0.1,0.3,0.2,0.5l1.8,4.6c0.1,0.2,0.2,0.5,0.3,0.7l1.6,4.8c0.1,0.2,0.1,0.4,0.2,0.5
					l0.7,2.4c0.1,0.2,0.1,0.4,0.2,0.6l0.6,2.4c0.1,0.2,0.1,0.5,0.2,0.7l0.5,2.4c0,0,0.5,2.4,0.5,2.5l0.5,2.5
					c0.1,0.4,0.1,0.8,0.2,1.2l0.6,5c0,0.2,0,0.4,0.1,0.5l0.2,2.4c0,0.2,0,0.4,0,0.7l0.1,2.6l0.1,2.4c0,0.2,0,0.4,0,0.6v2.6
					c0,0.2,0,0.4,0,0.6l-0.1,2.4l-0.1,2.6c0,0.2,0,0.4,0,0.7l-0.2,2.4c0,0.2,0,0.4-0.1,0.5l-0.6,5c0,0.4-0.1,0.8-0.2,1.2l-0.5,2.6
					l-0.5,2.3l-0.5,2.4c0,0.2-0.1,0.5-0.2,0.7l-0.6,2.4c0,0.2-0.1,0.4-0.2,0.6l-0.7,2.4c-0.1,0.2-0.1,0.4-0.2,0.5l-1.6,4.8
					c-0.1,0.2-0.2,0.5-0.3,0.7l-1.8,4.6c-0.1,0.2-0.1,0.3-0.2,0.5l-1,2.3c-0.1,0.2-0.2,0.5-0.3,0.7l-1,2.1l-1,2.2
					c-0.1,0.2-0.2,0.5-0.4,0.7l-1.2,2.2c-0.1,0.2-0.3,0.5-0.4,0.7l-1.2,2l-1.2,2.1c-0.1,0.2-0.3,0.5-0.4,0.7l-1.4,2.1
					c-0.1,0.1-0.1,0.2-0.2,0.3l-1.4,2c-0.1,0.1-0.2,0.3-0.3,0.4l-1.5,2c-0.1,0.1-0.2,0.2-0.3,0.4l-1.6,2c-0.1,0.1-0.2,0.2-0.2,0.3
					l-3.2,3.8c-0.2,0.2-0.4,0.4-0.6,0.6l-1.7,1.8c-0.1,0.1-0.2,0.2-0.3,0.3l-1.8,1.8c-0.1,0.1-0.2,0.2-0.3,0.3l-1.8,1.7
					c-0.1,0.1-0.2,0.2-0.3,0.3l-1.9,1.7c-0.1,0.1-0.2,0.2-0.3,0.3c0,0-2,1.7-2.1,1.8c-0.3,0.3-0.5,0.5-0.8,0.8l-2.7,2.5l-3,2.7
					l-0.3,3.2l0.2,3.6l0.9,17.2l1.3,3.1l4,9.1l1.6,3.6l9.4,4.1l6.3,2.7h129.6c0.8,0,1.5,0.1,2.3,0.2c0.4,0,0.9,0.1,1.3,0.2
					c0.6,0.1,1.1,0.2,1.7,0.3c0.1,0,0.3,0.1,0.4,0.1c0.5,0.1,1.1,0.3,1.6,0.5c0.2,0.1,0.4,0.1,0.6,0.2c0.4,0.1,0.8,0.3,1.2,0.4
					c0.6,0.2,1.2,0.5,1.8,0.8l0.4,0.2c0.3,0.2,0.7,0.4,1,0.6c0.5,0.3,1,0.6,1.5,0.9l0.3,0.2c0.3,0.2,0.5,0.3,0.7,0.5
					c0.4,0.3,0.9,0.6,1.3,0.9c0.2,0.1,0.3,0.3,0.5,0.4c0.7,0.5,1.3,1.1,1.8,1.7c0.6,0.6,1.2,1.2,1.7,1.8c0.1,0.2,0.3,0.3,0.4,0.5
					c0.3,0.4,0.7,0.8,0.9,1.3c0.2,0.2,0.4,0.5,0.5,0.7l0.2,0.3c0.3,0.5,0.6,1,0.9,1.5c0.2,0.3,0.4,0.7,0.6,1l0.2,0.3
					c0.3,0.6,0.6,1.2,0.8,1.9c0.2,0.4,0.3,0.8,0.4,1.2c0.1,0.2,0.1,0.4,0.2,0.6c0.2,0.5,0.3,1,0.5,1.6c0,0.1,0.1,0.3,0.1,0.4
					c0.1,0.5,0.3,1.1,0.3,1.7c0.1,0.4,0.1,0.9,0.2,1.3c0.1,0.7,0.2,1.5,0.2,2.3v67c0,0.8-0.1,1.5-0.2,2.3c0,0.4-0.1,0.9-0.2,1.3
					c-0.1,0.6-0.2,1.1-0.3,1.7c0,0.1-0.1,0.3-0.1,0.4c-0.1,0.5-0.3,1.1-0.5,1.6c-0.1,0.2-0.1,0.4-0.2,0.6c-0.1,0.4-0.3,0.8-0.4,1.2
					c-0.2,0.6-0.5,1.3-0.8,1.9l-0.2,0.3c-0.2,0.4-0.4,0.7-0.6,1c-0.3,0.5-0.6,1-0.9,1.5l-0.2,0.3c-0.2,0.3-0.3,0.5-0.5,0.7
					c-0.3,0.4-0.6,0.9-0.9,1.3c-0.1,0.2-0.3,0.3-0.4,0.5c-0.5,0.7-1.1,1.3-1.7,1.8c-0.6,0.6-1.2,1.2-1.8,1.7
					c-0.2,0.1-0.3,0.3-0.5,0.4c-0.4,0.3-0.8,0.6-1.3,0.9c-0.2,0.2-0.5,0.4-0.7,0.5l-0.3,0.2c-0.5,0.3-1,0.6-1.5,0.9
					c-0.3,0.2-0.7,0.4-1,0.6l-0.4,0.2c-0.6,0.3-1.2,0.6-1.8,0.8c-0.4,0.2-0.8,0.3-1.2,0.4c-0.2,0.1-0.4,0.1-0.6,0.2
					c-0.5,0.2-1.1,0.3-1.6,0.5c-0.1,0-0.3,0.1-0.4,0.1c-0.5,0.1-1.1,0.3-1.7,0.3c-0.4,0.1-0.9,0.1-1.3,0.2c-0.7,0.1-1.5,0.2-2.3,0.2
					H632.2c0,0-3.3,1.5-3.4,1.5l-9.1,3.9L616,427l-4.3,9.8l-2.6,5.9l0.2,4.8l1,20.1l0.4,9.9c0,0,1.5,29.9,1.5,30l0.4,9.9
					c0,0,1.5,30,1.5,30.1l0.4,9.9c0,0,1,19.9,1,20l0.4,9.9c0,0,2,40,2,40.1l0.4,9.9c0,0,1,20,1,20.1l0.4,9.8c0,0,1.5,30,1.5,30.1
					l0.4,9.9c0,0,1.5,30,1.5,30.1l0.4,9.8c0,0,1,20,1,20.1l0.4,9.9c0,0,2,40,2,40.1l0.4,9.9c0,0,1,19.9,1,20l0.2,4.8l3.1,3.6
					l4.5,5.1l4.4,2.1l3.5,1.7l3.3-1.1l19-6.4l9.4-3.2l19-6.4l9.4-3.2l8-2.7l1-0.6l8.4-5.1c0,0,8.5-5.3,8.6-5.3l8.5-5.2l8.7-5.2
					l8.4-5.2l8.7-5.2l8.4-5.1c0,0,8.5-5.3,8.6-5.3l8.5-5.2l8.7-5.2l6.5-4l8.4-9.4l13.4-15l6.6-7.4l7.3-8.1l-12.6-0.4
					c0,0-10-0.2-10.1-0.2l-10-0.3c-6.3-0.2-11.8-4.3-13.8-10.3s0-12.6,4.9-16.5l8.8-7l8-6.3l15.5-12.3l7.9-6.2l7.8-6.3l7.8-6.2
					l8-6.3l15.5-12.3l7.9-6.2l7.8-6.3l7.8-6.2l8-6.3l15.5-12.3l7.9-6.2l7.8-6.3l7.8-6.2l8-6.3c2.7-2.1,6-3.2,9.3-3.2
					c2.2,0,4.3,0.5,6.4,1.4c5.1,2.4,8.5,7.5,8.6,13.2l0.3,11.3l0.2,10c0,0,0.6,19.9,0.6,20l0.2,9.9c0,0,1.2,40,1.2,40.1l0.2,9.9
					c0,0,0.6,20,0.6,20.1l0.2,9.9c0,0,0.9,30,0.9,30.1l0.2,9.9l0.9,29.9c0.2,6.3-3.6,12.1-9.5,14.4c-1.8,0.7-3.7,1.1-5.5,1.1
					c-4.2,0-8.3-1.8-11.3-5.1l-6-6.8l-6.7-7.5l-13.1-14.9l-5.6-6.2l-3.4,4.6l-5.7,8.1c0,0-5.9,8.2-5.9,8.3l-5.9,8.1l-11.6,16.2
					l-5.8,8c0,0-5.8,8.2-5.9,8.3l-5.9,8.1L867.4,865l-5.9,8.2c-1.1,1.5-2.4,2.8-4,3.8l-4,2.6l-8.4,5.5l-8.2,5.5l-8.5,5.5l-8.2,5.5
					l-8.5,5.5l-8.2,5.5l-8.5,5.5l-8.3,5.4l-16.8,11l-8.2,5.5l-8.5,5.5L745,951l-8.5,5.5l-8.2,5.5c-1.2,0.8-2.5,1.4-3.9,1.8l-8.1,2.5
					l-18.9,6l-9.6,3l-9.6,3l-9.5,2.9l-9.4,3l-9.7,3l-9.4,2.9l-9.6,3l-9.5,3l-9.6,3l-9.6,3l-9.5,2.9l-9.4,3l-9.6,3l-9.6,3l-9.5,2.9
					l-9.4,3C543,1020.4,541.5,1020.6,540,1020.6z"/>
				<path d="M542.5,76.5l2.5,0.1l2.5,0.2l2.5,0.3l2.5,0.3l2.4,0.4l2.5,0.4l2.4,0.5l2.5,0.6l2.4,0.7l2.4,0.7l2.4,0.8l2.3,0.8l2.4,0.9
					l2.3,1l2.2,1.1l2.3,1.1l2.2,1.1l2.2,1.3l2.1,1.3l2.1,1.3l2.1,1.4l2,1.5l2,1.5l1.9,1.6l1.9,1.6l1.9,1.7l1.8,1.7l1.8,1.8l1.7,1.8
					l1.6,1.9l1.6,1.9l1.6,2l1.5,2l1.4,2l1.4,2.1l1.3,2.2l1.3,2.1l1.2,2.2l1.1,2.3l1.1,2.2l1,2.3l0.9,2.3l0.9,2.3l0.8,2.4l0.8,2.4
					l0.7,2.4l0.6,2.4l0.5,2.5l0.5,2.4l0.5,2.5l0.3,2.5l0.3,2.5l0.2,2.4l0.1,2.6l0.1,2.4v2.6l-0.1,2.4l-0.1,2.6l-0.2,2.4l-0.3,2.5
					l-0.3,2.5l-0.5,2.5l-0.5,2.4l-0.5,2.5l-0.6,2.4l-0.7,2.4l-0.8,2.4l-0.8,2.4l-0.9,2.3l-0.9,2.3l-1,2.3l-1.1,2.2l-1.1,2.3
					l-1.2,2.2l-1.3,2.1l-1.3,2.2l-1.4,2.1l-1.4,2l-1.5,2l-1.6,2l-1.6,1.9l-1.6,1.9l-1.7,1.8l-1.8,1.8l-1.8,1.7l-1.9,1.7l-1.9,1.6
					l-1.6,1.3l0.1,0.1l-2.6,2.4l-7.4,6.7v0.1l-0.8,10l0.2,4.5l0.5,10l0.5,10l2.4,5.6l4,9.2l4,9.1l5.6,2.4l9.1,4l9.2,4h131.9h0.2h0.2
					h0.2h0.2l0.2,0.1h0.2h0.2h0.2l0.2,0.1h0.2h0.2l0.2,0.1h0.2l0.2,0.1h0.2l0.2,0.1l0.4,0.1l0.2,0.1l0.2,0.1h0.2l0.2,0.1l0.2,0.1
					l0.4,0.1l0.2,0.1l0.2,0.1l0.1,0.1l0.2,0.1l0.2,0.1l0.2,0.1l0.2,0.1l0.3,0.2l0.2,0.2l0.2,0.1l0.1,0.1l0.2,0.1l0.2,0.2l0.1,0.1
					l0.2,0.1l0.1,0.1l0.2,0.2l0.2,0.1l0.1,0.2l0.1,0.1l0.2,0.2l0.1,0.1l0.2,0.1l0.1,0.2l0.2,0.2l0.1,0.1l0.1,0.2l0.1,0.1l0.2,0.2
					l0.1,0.2l0.1,0.1l0.1,0.2l0.2,0.2l0.2,0.3l0.1,0.2l0.1,0.2l0.1,0.2l0.1,0.2l0.1,0.1l0.1,0.2l0.1,0.2v0.2l0.1,0.2l0.1,0.2
					l0.1,0.2v0.2l0.1,0.2l0.1,0.2l0.1,0.4l0.1,0.2v0.2l0.1,0.2v0.2l0.1,0.2v0.2v0.2l0.1,0.2v0.2v0.2v0.2l0.1,0.2v0.2v0.2v0.2v0.2
					v65.4v0.2v0.2v0.2v0.2l-0.1,0.2v0.2v0.2v0.2l-0.1,0.2v0.2v0.2l-0.1,0.2v0.2l-0.1,0.2v0.2l-0.1,0.2l-0.1,0.4l-0.1,0.2l-0.1,0.2
					v0.2l-0.1,0.2l-0.1,0.2l-0.1,0.2v0.2l-0.1,0.2l-0.1,0.2l-0.1,0.1l-0.1,0.2l-0.1,0.2l-0.1,0.2l-0.1,0.2l-0.2,0.3l-0.2,0.2
					l-0.1,0.2l-0.1,0.1l-0.1,0.2l-0.2,0.2l-0.1,0.1l-0.1,0.2l-0.1,0.1l-0.2,0.2l-0.1,0.2l-0.2,0.1l-0.1,0.1l-0.2,0.2l-0.1,0.1
					l-0.1,0.2l-0.2,0.1l-0.2,0.2l-0.1,0.1l-0.2,0.1l-0.1,0.1l-0.2,0.2l-0.2,0.1l-0.1,0.1l-0.2,0.1l-0.2,0.2l-0.3,0.2l-0.2,0.1
					l-0.2,0.1l-0.2,0.1l-0.2,0.1l-0.1,0.1l-0.2,0.1l-0.2,0.1l-0.4,0.1l-0.2,0.1l-0.2,0.1h-0.2l-0.2,0.1l-0.2,0.1l-0.4,0.1l-0.2,0.1
					h-0.2l-0.2,0.1h-0.2l-0.2,0.1h-0.2h-0.2l-0.2,0.1h-0.2h-0.2h-0.2l-0.2,0.1h-0.2h-0.2h-0.2h-0.2H629l-6.1,2.7l-9.1,3.9l-9.2,4
					l-2.6,6l-4,9.2l-4,9.1l0.4,8.3l0.5,10l0.5,10l0.4,10l0.5,9.9l0.5,10l0.5,10l0.4,10l0.5,10l0.5,10l0.5,10l0.4,10l0.5,9.9l0.5,10
					l0.4,10l0.5,10l0.5,10l0.5,10l0.5,10l0.4,10l0.5,10l0.5,10l0.4,9.9l0.5,10l0.5,10l0.5,10l0.4,10l0.5,10l0.5,10l0.5,10l0.4,9.9
					l0.5,10l0.5,10l0.4,10l0.5,10l0.5,10l0.5,10l0.5,10l0.4,10l0.5,10l0.5,9.9l0.4,10l6.5,7.6l6.6,7.5l7.2,3.4l9,4.3l9.1-3.1
					l9.5-3.2l9.5-3.2l9.4-3.2l9.5-3.2l9.5-3.2l9.4-3.2l9.5-3.2l2.5-1.5l8.5-5.2l8.5-5.3l8.5-5.2l8.6-5.2l8.5-5.2l8.6-5.2l8.5-5.2
					l8.5-5.3l8.5-5.2l8.6-5.2l8.5-5.2l3.3-3.7l6.6-7.4l6.7-7.5l6.7-7.5l6.6-7.4l6.7-7.5l6.6-7.4l6.7-7.5l6.6-7.5l6.7-7.4l-0.9,0.2
					l-9.8,2.2l-9.7,2.2l-9.1-0.2l-10-0.3l-10-0.3l-10-0.2l-10-0.3l8.8-7l7.9-6.2l7.8-6.2l7.8-6.2l7.9-6.2l7.8-6.3l7.8-6.2l7.9-6.2
					l7.8-6.2l7.8-6.2l7.9-6.2l7.8-6.3l7.8-6.2l7.9-6.2l7.8-6.2l7.8-6.2l7.9-6.2l7.8-6.3l7.8-6.2l7.9-6.2l0.3,11.3l0.2,10l0.3,9.9
					l0.3,10l0.2,10l0.3,10l0.3,10l0.3,10l0.3,10l0.2,10l0.3,10l0.3,10l0.2,10l0.3,10l0.3,10l0.3,10l0.2,10l0.3,10l0.3,10l0.3,10
					l-6-6.8l-6.7-7.5l-6.6-7.5l-6.6-7.5l-6.7-7.4l-3.9-7.7l-4.6-8.9l-5.4,7.5l-5.8,8.1l-5.9,8.1l-5.8,8.2l-5.8,8.1l-5.9,8.1
					l-5.8,8.1l-5.8,8.1l-5.9,8.1l-5.8,8.2l-5.9,8.1l-5.8,8.1l-5.8,8.1l-5.9,8.2l-4,2.6l-8.4,5.5l-8.3,5.5l-8.4,5.5l-8.3,5.5
					l-8.4,5.5l-8.3,5.5l-8.4,5.5l-8.3,5.4l-8.4,5.5l-8.4,5.5l-8.3,5.5L745,933l-8.3,5.5l-8.4,5.5l-8.3,5.5l-8.2,2.5l-9.5,3l-9.5,3
					l-9.6,3l-9.5,3l-9.6,2.9l-9.5,3l-9.6,3l-9.5,2.9l-9.6,3l-9.5,3l-9.6,3l-9.5,3l-9.6,2.9l-9.5,3l-9.6,3l-9.5,3l-9.6,2.9l-9.5,3
					l-8.1-2.5l-9.6-3l-9.5-3l-9.6-2.9l-9.5-3l-9.5-3l-9.6-3l-9.5-3l-9.6-2.9l-9.5-3l-9.6-3l-9.5-3l-9.6-2.9l-9.5-3l-9.6-3l-9.5-3
					l-9.6-2.9l-9.5-3l-9.6-3l-4-2.7l-8.3-5.4l-8.4-5.5l-8.4-5.5l-8.3-5.5l-8.4-5.5l-8.3-5.5l-8.4-5.5l-8.3-5.5l-8.4-5.5l-8.3-5.5
					l-8.4-5.5l-8.4-5.5l-8.3-5.5l-8.4-5.5l-8.3-5.4l-5.4-7.5l-11.7-16.3l-5.8-8.1l-5.9-8.1l-5.8-8.1l-11.7-16.3l-5.8-8.1l-5.9-8.1
					l-5.8-8.1l-11.7-16.3l-5.8-8.1l-3.9,7.7l-4.6,8.9l-6,6.7l-6.7,7.5l-6.6,7.5l-6.6,7.5l-6.7,7.5l0.4-11.3l0.2-10l0.3-9.9l0.3-10
					l0.3-10l0.2-10l0.3-10l0.3-10l0.2-10l0.3-10l0.3-10l0.3-10l0.2-10l0.3-10l0.3-10l0.3-10l0.2-10l0.3-10l0.3-10l0.2-10l8.9,7
					l7.8,6.2l7.8,6.2l7.9,6.3l7.8,6.2l7.8,6.2l7.9,6.2l7.8,6.2l7.8,6.2l7.9,6.3l7.8,6.2l7.8,6.2l7.9,6.2l7.8,6.2l7.8,6.2l7.9,6.3
					l7.8,6.2l7.8,6.2l7.9,6.2l7.8,6.2l-9.1,0.2l-20,0.6l-10,0.3l-10,0.2l-0.9-0.2l-9.7-2.2l-9.8-2.2l3.3,3.7l6.6,7.4l6.7,7.5
					l6.6,7.4l6.7,7.5l13.3,14.9l6.7,7.5l6.6,7.4l6.7,7.5l2.4,1.5l8.6,5.2l8.5,5.2l8.5,5.2l8.6,5.3l8.5,5.2l8.5,5.2l8.6,5.2l8.5,5.2
					l8.5,5.2l8.6,5.3l8.5,5.2l9.1,3l9.4,3.3l9.5,3.2l9.5,3.2l9.5,3.2l9.4,3.2l9.5,3.2l9.5,3.2l7.2-3.4l9-4.3l6.5-7.5l6.6-7.6
					l0.3-8.2l0.5-10l0.5-10l0.5-10l0.4-10l0.5-10l0.5-10l0.5-9.9l0.4-10l0.5-10l0.5-10l0.5-10l0.4-10l0.5-10l0.5-10l0.5-9.9l0.4-10
					l0.5-10l0.5-10l0.4-10l0.5-10l0.5-10l0.5-10l0.4-10l0.5-9.9l0.5-10l0.5-10l0.4-10l0.5-10l0.5-10l0.5-10l0.4-10l0.5-10l0.5-10
					l0.5-9.9l0.4-10l0.5-10l0.5-10l0.4-10l0.5-10l0.5-10l0.5-10l-2.6-5.9l-4-9.2l-4-9.2l-6.1-2.6l-9.2-4l-9.1-4H327.3h-0.2h-0.2
					h-0.2h-0.2l-0.2-0.1h-0.2h-0.2h-0.2l-0.2-0.1h-0.2h-0.2l-0.2-0.1h-0.2l-0.2-0.1h-0.2l-0.2-0.1l-0.4-0.1l-0.2-0.1l-0.2-0.1h-0.2
					l-0.2-0.1l-0.2-0.1l-0.4-0.1l-0.2-0.1l-0.2-0.1l-0.1-0.1l-0.2-0.1l-0.2-0.1l-0.2-0.1l-0.2-0.1l-0.3-0.2l-0.2-0.2l-0.2-0.1
					l-0.1-0.1l-0.2-0.1l-0.2-0.2l-0.1-0.1l-0.2-0.1l-0.1-0.1l-0.2-0.2l-0.2-0.1l-0.1-0.2l-0.1-0.1l-0.2-0.2l-0.1-0.1l-0.2-0.1
					l-0.1-0.2l-0.2-0.2l-0.1-0.1l-0.1-0.2l-0.1-0.1l-0.2-0.2l-0.1-0.2l-0.1-0.1l-0.1-0.2l-0.2-0.2l-0.2-0.3l-0.1-0.2l-0.1-0.2
					l-0.1-0.2l-0.1-0.2l-0.1-0.1l-0.1-0.2l-0.1-0.2l-0.1-0.4l-0.1-0.2l-0.1-0.2v-0.2l-0.1-0.2l-0.1-0.2l-0.1-0.4l-0.1-0.2v-0.2
					l-0.1-0.2v-0.2l-0.1-0.2v-0.2v-0.2l-0.1-0.2v-0.2v-0.2v-0.2l-0.1-0.2v-0.2v-0.2v-0.2v-0.2v-65.4v-0.2v-0.2v-0.2v-0.2l0.1-0.2
					v-0.2v-0.2v-0.2l0.1-0.2v-0.2v-0.2l0.1-0.2v-0.2l0.1-0.2v-0.2l0.1-0.2l0.1-0.4l0.1-0.2l0.1-0.2v-0.2l0.1-0.2l0.1-0.2l0.1-0.4
					l0.1-0.2l0.1-0.2l0.1-0.1l0.1-0.2l0.1-0.2l0.1-0.2l0.1-0.2l0.2-0.3l0.2-0.2l0.1-0.2l0.1-0.1l0.1-0.2l0.2-0.2l0.1-0.1l0.1-0.2
					l0.1-0.1l0.2-0.2l0.1-0.2l0.2-0.1l0.1-0.1l0.2-0.2l0.1-0.1l0.1-0.2l0.2-0.1l0.2-0.2l0.1-0.1l0.2-0.1l0.1-0.1l0.2-0.2l0.2-0.1
					l0.1-0.1l0.2-0.1l0.2-0.2l0.3-0.2l0.2-0.1l0.2-0.1l0.2-0.1l0.2-0.1l0.1-0.1l0.2-0.1l0.2-0.1l0.4-0.1l0.2-0.1l0.2-0.1h0.2
					l0.2-0.1l0.2-0.1l0.4-0.1l0.2-0.1h0.2l0.2-0.1h0.2l0.2-0.1h0.2h0.2l0.2-0.1h0.2h0.2h0.2l0.2-0.1h0.2h0.2h0.2h0.2h131.9l5.6-2.4
					l9.2-4l9.1-4l2.5-5.6l3.9-9.2l4-9.1l0.2-4.5l0.5-10l0.5-10v-0.1l-0.8-10l-2.6-2.4l-7.4-6.7l0.1-0.1l-1.6-1.3l-1.9-1.6l-1.9-1.7
					l-1.8-1.7l-1.8-1.8l-1.7-1.8l-1.6-1.9l-1.6-1.9l-1.6-2l-1.5-2l-1.4-2l-1.4-2.1l-1.3-2.2l-1.3-2.1l-1.2-2.2l-1.1-2.3l-1.1-2.2
					l-1-2.3l-0.9-2.3l-0.9-2.3l-0.8-2.4l-0.8-2.4l-0.7-2.4l-0.6-2.4l-0.5-2.5l-0.5-2.4l-0.5-2.5l-0.3-2.5l-0.3-2.5l-0.2-2.4
					l-0.1-2.6l-0.1-2.4v-2.6l0.1-2.4l0.1-2.6l0.2-2.4l0.3-2.5l0.3-2.5l0.5-2.5l0.5-2.4l0.5-2.5l0.6-2.4l0.7-2.4l0.8-2.4l0.8-2.4
					l0.9-2.3l0.9-2.3l1-2.3l1.1-2.2l1.1-2.3l1.2-2.2l1.3-2.1l1.3-2.2l1.4-2.1l1.4-2l1.5-2l1.6-2l1.6-1.9l1.6-1.9l1.7-1.8l1.8-1.8
					l1.8-1.7l1.9-1.7l1.9-1.6l1.9-1.6l2-1.5l2-1.5l2.1-1.4l2.1-1.3l2.1-1.3l2.2-1.3l2.2-1.1l2.3-1.1l2.2-1.1l2.3-1l2.4-0.9l2.3-0.8
					l2.4-0.8l2.4-0.7l2.4-0.7l2.5-0.6l2.4-0.5l2.5-0.4l2.4-0.4l2.5-0.3l2.5-0.3l2.5-0.2l2.5-0.1h2.5L542.5,76.5 M542.5,46.5H540
					h-2.5c-0.4,0-0.8,0-1.2,0l-2.5,0.1c-0.4,0-0.8,0-1.2,0.1l-2.5,0.2c-0.4,0-0.8,0.1-1.2,0.1l-2.5,0.3l-2.5,0.3
					c-0.5,0.1-0.9,0.1-1.4,0.2l-2.3,0.4l-2.4,0.4c-0.5,0.1-0.9,0.2-1.4,0.3l-2.4,0.5c-0.3,0.1-0.6,0.1-0.9,0.2l-2.5,0.6
					c-0.5,0.1-0.9,0.2-1.4,0.4l-2.4,0.7l-2.4,0.7c-0.4,0.1-0.7,0.2-1.1,0.3L501,53c-0.1,0-0.2,0.1-0.4,0.1l-2.3,0.8
					c-0.2,0.1-0.5,0.2-0.7,0.2l-2.4,0.9c-0.5,0.2-1,0.4-1.4,0.6l-2.3,1c-0.5,0.2-1,0.4-1.5,0.7l-2,1l-2.1,1
					c-0.2,0.1-0.3,0.2-0.5,0.2l-2.2,1.1c-0.6,0.3-1.2,0.6-1.8,1l-2.2,1.3c-0.2,0.1-0.4,0.2-0.5,0.3l-2.1,1.3l-2.1,1.3
					c-0.3,0.2-0.6,0.4-0.9,0.5l-2.1,1.4c-0.5,0.3-0.9,0.6-1.4,1l-2,1.5l-2,1.5c-0.5,0.3-0.9,0.7-1.3,1.1l-1.9,1.6L461,76
					c-0.2,0.2-0.5,0.4-0.7,0.6l-1.9,1.7c-0.2,0.2-0.4,0.4-0.6,0.5l-1.8,1.7c-0.2,0.2-0.4,0.4-0.6,0.6l-1.8,1.8
					c-0.2,0.2-0.4,0.4-0.6,0.6l-1.7,1.8c-0.4,0.4-0.8,0.8-1.1,1.3l-1.6,1.9l-1.6,1.9c-0.2,0.2-0.3,0.4-0.5,0.6l-1.6,2
					c-0.2,0.2-0.4,0.5-0.6,0.7l-1.5,2c-0.2,0.3-0.4,0.5-0.6,0.8l-1.4,2c-0.1,0.2-0.3,0.4-0.4,0.6l-1.4,2.1c-0.3,0.5-0.6,0.9-0.9,1.4
					l-1.1,1.9l-1.1,1.8c-0.3,0.5-0.6,0.9-0.8,1.4l-1.2,2.2c-0.3,0.5-0.5,0.9-0.7,1.4l-1,2.1l-1,2c-0.2,0.5-0.5,1-0.7,1.5l-1,2.3
					c-0.1,0.3-0.3,0.7-0.4,1l-0.9,2.3l-0.9,2.3c-0.2,0.5-0.4,1-0.5,1.4l-0.8,2.4l-0.8,2.4c-0.1,0.4-0.2,0.7-0.3,1.1l-0.7,2.4
					c-0.1,0.4-0.2,0.7-0.3,1.1l-0.6,2.4c-0.1,0.5-0.2,0.9-0.3,1.4l-0.5,2.4l-0.5,2.3c0,0.1,0,0.2,0,0.2l-0.5,2.5
					c-0.2,0.8-0.3,1.5-0.4,2.3l-0.3,2.5l-0.3,2.5c0,0.4-0.1,0.7-0.1,1.1l-0.2,2.4c0,0.4-0.1,0.9-0.1,1.3l-0.1,2.6v2.5
					c0,0.4,0,0.8,0,1.2v2.6c0,0.4,0,0.8,0,1.2l0.1,2.3l0.1,2.6c0,0.4,0,0.9,0.1,1.3l0.2,2.4c0,0.4,0.1,0.7,0.1,1.1l0.3,2.5l0.3,2.5
					c0.1,0.8,0.2,1.5,0.4,2.3l0.5,2.5c0,0.1,0,0.2,0,0.2l0.5,2.3l0.5,2.4c0.1,0.5,0.2,0.9,0.3,1.4l0.6,2.4c0.1,0.4,0.2,0.8,0.3,1.1
					l0.7,2.4c0.1,0.4,0.2,0.7,0.3,1.1l0.8,2.4l0.8,2.4c0.2,0.5,0.3,1,0.5,1.4l0.9,2.3l0.9,2.3c0.1,0.3,0.3,0.7,0.4,1l1,2.3
					c0.2,0.5,0.4,1,0.7,1.5l1,2l1,2.1c0.2,0.5,0.5,1,0.7,1.4l1.2,2.2c0.3,0.5,0.5,1,0.8,1.4l1.1,1.8l1.1,1.9
					c0.3,0.5,0.6,0.9,0.9,1.4l1.4,2.1c0.1,0.2,0.3,0.4,0.4,0.6l1.4,2c0.2,0.3,0.4,0.5,0.6,0.8l1.5,2c0.2,0.2,0.4,0.5,0.6,0.7l1.6,2
					c0.2,0.2,0.3,0.4,0.5,0.6l1.6,1.9l1.6,1.9c0.4,0.4,0.7,0.9,1.1,1.3l1.7,1.8c0.2,0.2,0.4,0.4,0.6,0.6l1.8,1.8
					c0.2,0.2,0.4,0.4,0.6,0.6l1.8,1.7c0.2,0.2,0.4,0.4,0.6,0.5l1.9,1.7c0.2,0.2,0.5,0.4,0.7,0.6l1.6,1.3c0.3,0.3,0.7,0.7,1,1
					l0.7,0.6l-0.2,4.8l-0.5,9l-1.7,4c-0.1,0.1-0.1,0.2-0.2,0.4l-1.6,3.8L453,285H327.3h-0.2h-0.2h-0.2h-0.2c-1.4,0-2.8,0.1-4.1,0.3
					c-0.6,0.1-1.3,0.2-1.9,0.3c-1,0.1-1.9,0.3-2.8,0.6c-0.1,0-0.3,0.1-0.4,0.1c-0.9,0.2-1.8,0.5-2.7,0.8c-0.2,0.1-0.4,0.1-0.6,0.2
					c-0.6,0.2-1.2,0.4-1.7,0.6c-1.1,0.4-2.2,0.9-3.3,1.4l-0.2,0.1l-0.2,0.1c-0.5,0.3-1.1,0.6-1.6,0.9c-0.9,0.5-1.7,1-2.5,1.5
					l-0.3,0.2c-0.4,0.3-0.8,0.5-1.1,0.8c-0.7,0.5-1.3,0.9-1.9,1.4c-0.2,0.1-0.3,0.3-0.5,0.4c-1.1,0.9-2.1,1.8-3.1,2.8
					s-1.9,2-2.8,3.1c-0.1,0.2-0.3,0.3-0.4,0.5c-0.5,0.6-1,1.3-1.4,1.9c-0.3,0.4-0.5,0.8-0.8,1.1l-0.2,0.3c-0.5,0.8-1,1.7-1.5,2.5
					c-0.3,0.5-0.6,1.1-0.9,1.6l-0.1,0.2l-0.1,0.2c-0.5,1.1-1,2.2-1.4,3.3c-0.2,0.6-0.4,1.2-0.6,1.7c-0.1,0.2-0.1,0.4-0.2,0.6
					c-0.3,0.9-0.6,1.8-0.8,2.7c0,0.1-0.1,0.3-0.1,0.4c-0.2,0.9-0.4,1.9-0.6,2.8c-0.1,0.6-0.2,1.3-0.3,1.9c-0.2,1.4-0.3,2.7-0.3,4.1
					v0.2v0.2v0.2v0.2v65.4v0.2v0.2v0.2v0.2c0,1.4,0.1,2.8,0.3,4.1c0.1,0.6,0.2,1.3,0.3,1.9c0.1,1,0.3,1.9,0.6,2.8
					c0,0.1,0.1,0.3,0.1,0.4c0.2,0.9,0.5,1.8,0.8,2.7c0.1,0.2,0.1,0.4,0.2,0.6c0.2,0.6,0.4,1.2,0.6,1.7c0.4,1.1,0.9,2.2,1.4,3.3
					l0.1,0.2l0.1,0.2c0.3,0.5,0.6,1.1,0.9,1.6c0.5,0.9,1,1.7,1.5,2.5l0.2,0.3c0.3,0.4,0.5,0.8,0.8,1.1c0.5,0.7,0.9,1.3,1.4,1.9
					c0.1,0.2,0.3,0.3,0.4,0.5c0.9,1.1,1.8,2.1,2.8,3.1s2,1.9,3.1,2.8c0.2,0.1,0.3,0.3,0.5,0.4c0.6,0.5,1.3,1,1.9,1.4
					c0.4,0.3,0.8,0.5,1.1,0.8l0.3,0.2c0.8,0.5,1.7,1,2.5,1.5c0.5,0.3,1.1,0.6,1.6,0.9l0.2,0.1l0.2,0.1c1.1,0.5,2.2,1,3.3,1.4
					c0.6,0.2,1.2,0.4,1.7,0.6c0.2,0.1,0.4,0.1,0.6,0.2c0.9,0.3,1.8,0.6,2.7,0.8c0.1,0,0.3,0.1,0.4,0.1c0.9,0.2,1.9,0.4,2.8,0.6
					c0.6,0.1,1.3,0.2,1.9,0.3c1.4,0.2,2.7,0.3,4.1,0.3h0.2h0.2h0.2h0.2h117.4l3.3,1.5h0.1l4.5,2l3.1,7l-0.1,2.9l-0.5,10l-0.5,10
					c0,0.1,0,0.2,0,0.3l-0.4,9.8l-0.5,9.9l-0.5,10c0,0.1,0,0.2,0,0.3l-0.4,9.8l-0.5,9.8l-0.5,10l-0.5,10c0,0.1,0,0.2,0,0.3l-0.4,9.8
					l-0.5,9.9l-0.5,10l-0.5,10c0,0.1,0,0.2,0,0.3l-0.4,9.8l-0.5,9.9l-0.5,10l-0.5,9.9c0,0.1,0,0.2,0,0.3l-0.4,9.8l-0.5,9.9l-0.5,10
					l-0.5,10c0,0.1,0,0.2,0,0.3l-0.4,9.8l-0.5,9.9l-0.5,10c0,0.1,0,0.2,0,0.3l-0.4,9.8l-0.5,9.8l-0.5,10l-0.5,10c0,0.1,0,0.2,0,0.3
					l-0.4,9.8l-0.5,9.9l-0.5,10l-0.5,10c0,0.1,0,0.2,0,0.3L440,778l-0.5,9.8l-0.5,10l-0.5,10c0,0.1,0,0.2,0,0.3l-0.4,9.8l-0.5,9.9
					l-0.5,10l-0.4,8l-1.9,2.1l-7.3-2.5l-9.3-3.2h-0.1l-9.5-3.2l-9.5-3.2l-9.3-3.1l-9.2-3.2c-0.2-0.1-0.4-0.1-0.5-0.2l-5.8-1.9
					l-5.5-3.4l-8.6-5.3c0,0-0.1,0-0.1-0.1l-8.5-5.2l-8.5-5.2l-0.1-0.1l-8.5-5.2l-8.4-5.2l-8.5-5.2l-8.6-5.3c0,0-0.1,0-0.1-0.1
					l-8.5-5.2l-8.5-5.2l-0.1-0.1l-7.1-4.3l-3.8-4.2l-6.6-7.4l-2.4-2.6h0.2c12.6-0.3,23.7-8.4,27.8-20.4c4-12,0.1-25.2-9.8-33.1
					l-7.8-6.2l-0.1-0.1l-7.8-6.1l-7.7-6.1l-7.8-6.2L251,674l-7.8-6.2l-7.8-6.2l-0.1-0.1l-7.8-6.1l-7.7-6.1l-7.8-6.2l-7.9-6.3
					l-7.8-6.2l-7.8-6.2l-0.1-0.1l-7.8-6.1l-7.7-6.1l-7.8-6.2l-7.9-6.3l-7.8-6.2l-7.8-6.2l-0.1-0.1l-8.9-7
					c-5.4-4.2-11.9-6.4-18.6-6.4c-4.4,0-8.7,0.9-12.8,2.9c-10.3,4.9-16.9,15.1-17.2,26.5l-0.2,9.8l-0.3,9.9l-0.3,10
					c0,0.1,0,0.2,0,0.3l-0.2,9.8l-0.3,9.9l-0.3,10l-0.3,10c0,0.1,0,0.2,0,0.3l-0.2,9.8l-0.3,9.9l-0.3,10l-0.3,10c0,0.1,0,0.2,0,0.3
					l-0.2,9.8l-0.3,9.9l-0.3,10c0,0.1,0,0.2,0,0.3l-0.2,9.8l-0.3,9.9l-0.3,10l-0.3,9.9c0,0.1,0,0.2,0,0.3l-0.2,9.8l-0.4,11.1
					c-0.4,12.6,7.1,24.2,18.8,28.9c3.6,1.5,7.4,2.2,11.2,2.2c8.4,0,16.6-3.5,22.4-10l6.7-7.5c0-0.1,0.1-0.1,0.1-0.2l6.6-7.5l5.5-6.3
					l4.6,6.4l5.7,8l11.7,16.3l5.8,8.1c0,0.1,0.1,0.1,0.1,0.2l5.8,8l5.7,8l11.7,16.3l5.4,7.5c2.2,3,4.9,5.6,8,7.6l8.3,5.4l8.3,5.4
					l8.2,5.5l0.1,0.1l8.4,5.5l8.3,5.5l8.2,5.5l0.1,0.1l8.3,5.5l8.2,5.5l0.1,0.1l8.3,5.5l8.2,5.5l0.1,0.1l8.3,5.5l8.2,5.5l0.1,0.1
					l8.4,5.5l8.4,5.5c0,0,0,0,0.1,0l8.1,5.3l3.8,2.6c2.4,1.6,5.1,2.9,7.8,3.8l9.6,3l9.4,3c0.1,0,0.2,0.1,0.4,0.1l9.4,2.8l9.3,2.9
					h0.1l9.6,3l9.4,3c0.1,0,0.2,0.1,0.4,0.1l9.4,2.8l9.3,2.9h0.1l9.6,3l9.4,3c0.1,0,0.2,0.1,0.4,0.1l9.4,2.8l9.3,2.9h0.1l9.6,3
					l9.4,3l9.5,3c0.1,0,0.2,0.1,0.4,0.1l9.4,2.8l9.3,2.9h0.1l9.6,3h0.1l8.1,2.5c2.9,0.9,5.9,1.3,8.8,1.3c3,0,6.1-0.5,9-1.4l9.3-2.9
					l9.4-2.8c0.1,0,0.2-0.1,0.4-0.1l9.4-3l9.6-3h0.1l9.3-2.9l9.4-2.8c0.1,0,0.2-0.1,0.4-0.1l9.4-3l9.6-3h0.1l9.4-3l9.5-3l9.4-2.9
					c0.1,0,0.1,0,0.2-0.1l9.6-3h0.1l9.3-2.9l9.4-2.8c0.1,0,0.2-0.1,0.4-0.1l9.4-3l9.6-3h0.1l9.5-3l9.4-3l8.1-2.5
					c2.8-0.8,5.4-2.1,7.8-3.7l8.2-5.5l8.3-5.5l0.1-0.1l8.2-5.5l8.3-5.5l0.1-0.1l8.2-5.5l8.3-5.5l8.4-5.5l8.3-5.4c0,0,0,0,0.1,0
					l8.4-5.5l0.1-0.1l8.2-5.5l8.3-5.5l0.1-0.1l8.2-5.5l8.3-5.5l0.1-0.1l8.2-5.5l8.3-5.4l4-2.6c3.1-2,5.8-4.6,8-7.6l5.9-8.2
					c0,0,0,0,0-0.1l5.8-8.1l5.7-8l5.8-8c0.1-0.1,0.2-0.2,0.2-0.3l5.7-8l5.8-7.9c0-0.1,0.1-0.1,0.1-0.2l5.8-8.1l5.7-8l5.8-8
					c0-0.1,0.1-0.1,0.1-0.2l4-5.6l6.2,7c0,0.1,0.1,0.1,0.1,0.2l6.6,7.4l5.9,6.7c5.8,6.6,14.1,10.2,22.5,10.2c3.7,0,7.4-0.7,11-2.1
					c11.8-4.6,19.3-16.2,19-28.8l-0.3-10l-0.3-10l-0.3-9.9l-0.2-9.8c0-0.1,0-0.2,0-0.3l-0.3-10l-0.3-10l-0.3-9.9l-0.2-9.8
					c0-0.1,0-0.2,0-0.3l-0.3-10l-0.3-9.9l-0.2-9.8c0-0.1,0-0.2,0-0.3l-0.3-10l-0.3-10l-0.3-10l-0.3-9.9l-0.2-9.8c0-0.1,0-0.2,0-0.3
					l-0.3-10l-0.3-9.8l-0.2-9.8c0-0.1,0-0.1,0-0.2l-0.3-11.3c-0.3-11.3-7-21.5-17.2-26.4c-4.1-1.9-8.4-2.9-12.8-2.9
					c-6.6,0-13.1,2.2-18.5,6.4l-7.9,6.2l-0.1,0.1l-7.8,6.2c-0.1,0-0.1,0.1-0.2,0.1l-7.6,6.2l-7.7,6.1l-0.1,0.1l-7.8,6.2l-7.7,6.1
					l-7.8,6.1l-0.1,0.1l-7.8,6.2c-0.1,0-0.1,0.1-0.2,0.1L877,636l-7.7,6.1l-0.1,0.1l-7.8,6.2l-7.7,6.1l-7.8,6.1l-0.1,0.1l-7.8,6.2
					c-0.1,0-0.1,0.1-0.2,0.1l-7.6,6.2l-7.7,6.1l-0.1,0.1l-7.8,6.2l-7.7,6.1l-7.8,6.1c-0.1,0-0.1,0.1-0.2,0.1l-8.8,7
					c-9.9,7.8-13.8,21-9.8,32.9s15,20.1,27.6,20.5h0.5l-5.7,6.4l-6.6,7.4l-0.3,0.4l-4.6,2.8l-8.5,5.2l-0.1,0.1l-8.5,5.2
					c-0.1,0-0.1,0.1-0.2,0.1l-8.4,5.2l-8.3,5.1l-8.5,5.2l-0.1,0.1l-8.4,5.2l-8.5,5.2l-0.1,0.1l-8.5,5.2c-0.1,0-0.1,0.1-0.2,0.1
					l-8.4,5.2l-7.9,4.8l-6.4,2.2h-0.1L690,833l-9.5,3.2l-9.5,3.2h-0.1l-9.3,3.2l-9.5,3.2l-7,2.4l-1.8-2l-0.5-9.8l-0.5-9.8l-0.4-9.8
					c0-0.1,0-0.2,0-0.3l-0.5-10l-0.5-10l-0.5-10l-0.5-9.9l-0.4-9.8c0-0.1,0-0.2,0-0.3l-0.5-10l-0.5-9.9l-0.4-9.8c0-0.1,0-0.2,0-0.3
					l-0.5-10l-0.5-10l-0.5-9.9l-0.4-9.8c0-0.1,0-0.2,0-0.3l-0.5-10l-0.5-10l-0.5-9.9l-0.4-9.8c0-0.1,0-0.2,0-0.3l-0.5-10l-0.5-9.9
					l-0.4-9.8c0-0.1,0-0.2,0-0.3l-0.5-10l-0.5-10l-0.5-10l-0.5-9.9l-0.4-9.8c0-0.1,0-0.2,0-0.3l-0.5-10l-0.5-9.8l-0.4-9.8
					c0-0.1,0-0.2,0-0.3l-0.5-10l-0.5-10l-0.5-9.9l-0.4-9.8c0-0.1,0-0.2,0-0.3l-0.5-10l-0.5-10l-0.5-9.8l-0.4-9.8c0-0.1,0-0.2,0-0.3
					l-0.5-10l-0.5-9.9l0,0l-0.1-1.2l1.2-2.6v-0.1l1.9-4.4l7.3-3.1c0.1,0,0.2-0.1,0.3-0.1l0.3-0.1h117.4h0.2h0.2h0.2h0.2
					c1.4,0,2.8-0.1,4.1-0.3c0.6-0.1,1.3-0.2,1.9-0.3c1-0.1,1.9-0.3,2.8-0.6c0.1,0,0.3-0.1,0.4-0.1c0.9-0.2,1.8-0.5,2.7-0.8
					c0.2-0.1,0.4-0.1,0.6-0.2c0.6-0.2,1.2-0.4,1.7-0.6c1.1-0.4,2.2-0.9,3.3-1.4l0.2-0.1l0.2-0.1c0.5-0.3,1.1-0.6,1.6-0.9
					c0.9-0.5,1.7-1,2.5-1.5l0.3-0.2c0.4-0.3,0.8-0.5,1.1-0.8c0.7-0.5,1.3-0.9,1.9-1.4c0.2-0.1,0.3-0.3,0.5-0.4
					c1.1-0.9,2.1-1.8,3.1-2.8s1.9-2,2.8-3.1c0.1-0.2,0.3-0.3,0.4-0.5c0.5-0.6,1-1.3,1.4-1.9c0.3-0.4,0.5-0.8,0.8-1.1l0.2-0.3
					c0.5-0.8,1-1.7,1.5-2.5c0.3-0.5,0.6-1.1,0.9-1.6l0.1-0.2l0.1-0.2c0.5-1.1,1-2.2,1.4-3.3c0.2-0.6,0.4-1.2,0.6-1.7
					c0.1-0.2,0.1-0.4,0.2-0.6c0.3-0.9,0.6-1.8,0.8-2.7c0-0.1,0.1-0.3,0.1-0.4c0.2-0.9,0.4-1.9,0.6-2.8c0.1-0.6,0.2-1.3,0.3-1.9
					c0.2-1.4,0.3-2.7,0.3-4.1v-0.2v-0.2v-0.2V393v-65.4v-0.2v-0.2V327v-0.2c0-1.4-0.1-2.8-0.3-4.1c-0.1-0.6-0.2-1.3-0.3-1.9
					c-0.1-1-0.3-1.9-0.6-2.8c0-0.1-0.1-0.3-0.1-0.4c-0.2-0.9-0.5-1.8-0.8-2.7c-0.1-0.2-0.1-0.4-0.2-0.6c-0.2-0.6-0.4-1.2-0.6-1.7
					c-0.4-1.1-0.9-2.2-1.4-3.3l-0.1-0.2l-0.1-0.2c-0.3-0.5-0.6-1.1-0.9-1.6c-0.5-0.9-1-1.7-1.5-2.5l-0.2-0.3
					c-0.3-0.4-0.5-0.8-0.8-1.1c-0.5-0.7-0.9-1.3-1.4-1.9c-0.1-0.2-0.3-0.3-0.4-0.5c-0.9-1.1-1.8-2.1-2.8-3.1s-2-1.9-3.1-2.8
					c-0.2-0.1-0.3-0.3-0.5-0.4c-0.6-0.5-1.3-1-1.9-1.4c-0.4-0.3-0.8-0.5-1.1-0.8l-0.3-0.2c-0.8-0.5-1.7-1-2.5-1.5
					c-0.5-0.3-1.1-0.6-1.6-0.9l-0.2-0.1l-0.2-0.1c-1.1-0.5-2.2-1-3.3-1.4c-0.6-0.2-1.2-0.4-1.7-0.6c-0.2-0.1-0.4-0.1-0.6-0.2
					c-0.9-0.3-1.8-0.6-2.7-0.8c-0.1,0-0.3-0.1-0.4-0.1c-0.9-0.2-1.9-0.4-2.8-0.6c-0.6-0.1-1.3-0.2-1.9-0.3c-1.4-0.2-2.7-0.3-4.1-0.3
					h-0.2H753h-0.2h-0.2H627l-3.4-1.5l-4-1.7l-3.2-7.4l-0.2-0.6l-0.2-4.6l-0.5-9.3l0.9-0.9c0.3-0.3,0.6-0.5,0.8-0.8l1.6-1.3
					c0.2-0.2,0.5-0.4,0.7-0.6l1.9-1.7c0.2-0.2,0.4-0.4,0.6-0.5l1.8-1.7c0.2-0.2,0.4-0.4,0.6-0.6l1.8-1.8c0.2-0.2,0.4-0.4,0.6-0.6
					l1.7-1.8c0.4-0.4,0.8-0.8,1.1-1.3l1.6-1.9l1.6-1.9c0.2-0.2,0.3-0.4,0.5-0.6l1.6-2c0.2-0.2,0.4-0.5,0.6-0.7l1.5-2
					c0.2-0.3,0.4-0.5,0.6-0.8l1.4-2c0.1-0.2,0.3-0.4,0.4-0.6l1.4-2.1c0.3-0.5,0.6-0.9,0.9-1.4l1.1-1.9l1.1-1.8
					c0.3-0.5,0.6-0.9,0.8-1.4l1.2-2.2c0.3-0.5,0.5-0.9,0.7-1.4l1-2.1l1-2c0.2-0.5,0.5-1,0.7-1.5l1-2.3c0.1-0.3,0.3-0.7,0.4-1
					l0.9-2.3l0.9-2.3c0.2-0.5,0.4-1,0.5-1.4l0.8-2.4l0.8-2.4c0.1-0.4,0.2-0.7,0.3-1.1l0.7-2.4c0.1-0.4,0.2-0.7,0.3-1.1l0.6-2.4
					c0.1-0.5,0.2-0.9,0.3-1.4l0.5-2.4l0.5-2.3c0-0.1,0-0.2,0-0.2l0.5-2.5c0.2-0.8,0.3-1.5,0.4-2.3l0.3-2.5l0.3-2.5
					c0-0.4,0.1-0.7,0.1-1.1l0.2-2.4c0-0.4,0.1-0.9,0.1-1.3l0.1-2.6l0.1-2.3c0-0.4,0-0.8,0-1.2v-2.6c0-0.4,0-0.8,0-1.2l-0.1-2.3
					l-0.1-2.6c0-0.4,0-0.9-0.1-1.3l-0.2-2.4c0-0.4-0.1-0.7-0.1-1.1l-0.3-2.5l-0.3-2.5c-0.1-0.8-0.2-1.5-0.4-2.3l-0.5-2.5
					c0-0.1,0-0.2,0-0.2l-0.5-2.3l-0.5-2.4c-0.1-0.5-0.2-0.9-0.3-1.4l-0.6-2.4c-0.1-0.4-0.2-0.8-0.3-1.1l-0.7-2.4
					c-0.1-0.4-0.2-0.7-0.3-1.1l-0.8-2.4l-0.8-2.4c-0.2-0.5-0.3-1-0.5-1.4l-0.9-2.3l-0.9-2.3c-0.1-0.3-0.3-0.7-0.4-1l-1-2.3
					c-0.2-0.5-0.4-1-0.7-1.5l-1-2l-1-2.1c-0.2-0.5-0.5-1-0.7-1.4l-1.2-2.2c-0.3-0.5-0.5-1-0.8-1.4l-1.1-1.8l-1.1-1.9
					c-0.3-0.5-0.6-0.9-0.9-1.4l-1.4-2.1c-0.1-0.2-0.3-0.4-0.4-0.6l-1.4-2c-0.2-0.3-0.4-0.5-0.6-0.8l-1.5-2c-0.2-0.2-0.4-0.5-0.6-0.7
					l-1.6-2c-0.2-0.2-0.3-0.4-0.5-0.6l-1.6-1.9l-1.6-1.9c-0.4-0.4-0.7-0.9-1.1-1.3l-1.7-1.8c-0.2-0.2-0.4-0.4-0.6-0.6l-1.8-1.8
					c-0.2-0.2-0.4-0.4-0.6-0.6l-1.8-1.7c-0.2-0.2-0.4-0.4-0.6-0.5l-1.9-1.7c-0.2-0.2-0.5-0.4-0.7-0.6l-1.9-1.6l-1.9-1.6
					c-0.4-0.4-0.9-0.7-1.3-1.1l-2-1.5l-2-1.5c-0.4-0.3-0.9-0.7-1.4-1l-2.1-1.4c-0.3-0.2-0.6-0.4-0.9-0.5l-2.1-1.3l-2.1-1.3
					c-0.2-0.1-0.4-0.2-0.5-0.3l-2.2-1.3c-0.6-0.4-1.2-0.7-1.8-1l-2.2-1.1c-0.2-0.1-0.3-0.2-0.5-0.2l-2.1-1l-2-1
					c-0.5-0.2-1-0.5-1.5-0.7l-2.3-1c-0.5-0.2-0.9-0.4-1.4-0.6l-2.4-0.9c-0.2-0.1-0.5-0.2-0.7-0.2l-2.3-0.8c-0.1,0-0.2-0.1-0.4-0.1
					l-2.4-0.8c-0.4-0.1-0.7-0.2-1.1-0.3l-2.4-0.7l-2.4-0.7c-0.5-0.1-0.9-0.3-1.4-0.4l-2.5-0.6c-0.3-0.1-0.6-0.1-0.9-0.2l-2.4-0.5
					c-0.5-0.1-0.9-0.2-1.4-0.3l-2.4-0.4l-2.3-0.4c-0.5-0.1-0.9-0.1-1.4-0.2l-2.5-0.3l-2.5-0.3c-0.4,0-0.8-0.1-1.2-0.1l-2.5-0.2
					c-0.4,0-0.8-0.1-1.2-0.1l-2.5-0.1C543.3,46.5,542.9,46.5,542.5,46.5L542.5,46.5z"/>
			</g>
		</g>
	</g>
</g>
</svg>
